<svg width="176" height="41" viewBox="0 0 176 41" fill="none" xmlns="http://www.w3.org/2000/svg">
<circle cx="12" cy="12" r="12" fill="#CFCFCF"/>
<path d="M11.944 8.304C11.5707 8.304 11.2133 8.352 10.872 8.448C10.5307 8.53333 10.1733 8.67733 9.8 8.88L9.256 7.392C9.65067 7.168 10.0987 6.992 10.6 6.864C11.112 6.72533 11.6347 6.656 12.168 6.656C12.808 6.656 13.336 6.74667 13.752 6.928C14.168 7.09867 14.4987 7.31733 14.744 7.584C14.9893 7.85067 15.16 8.144 15.256 8.464C15.352 8.784 15.4 9.09333 15.4 9.392C15.4 9.75467 15.3307 10.08 15.192 10.368C15.064 10.656 14.8987 10.9227 14.696 11.168C14.4933 11.4133 14.2747 11.648 14.04 11.872C13.8053 12.0853 13.5867 12.3093 13.384 12.544C13.1813 12.768 13.0107 13.008 12.872 13.264C12.744 13.52 12.68 13.808 12.68 14.128C12.68 14.1813 12.68 14.2453 12.68 14.32C12.68 14.384 12.6853 14.448 12.696 14.512H11.032C11.0107 14.4053 10.9947 14.2933 10.984 14.176C10.9733 14.048 10.968 13.9307 10.968 13.824C10.968 13.472 11.0267 13.1573 11.144 12.88C11.2613 12.6027 11.4107 12.3467 11.592 12.112C11.7733 11.8773 11.9653 11.6587 12.168 11.456C12.3813 11.2533 12.5787 11.0507 12.76 10.848C12.9413 10.6453 13.0907 10.4373 13.208 10.224C13.3253 10.0107 13.384 9.776 13.384 9.52C13.384 9.168 13.2613 8.88 13.016 8.656C12.7813 8.42133 12.424 8.304 11.944 8.304ZM13.192 16.944C13.192 17.3173 13.0693 17.6213 12.824 17.856C12.5787 18.0907 12.2747 18.208 11.912 18.208C11.56 18.208 11.256 18.0907 11 17.856C10.7547 17.6213 10.632 17.3173 10.632 16.944C10.632 16.5707 10.7547 16.2667 11 16.032C11.256 15.7867 11.56 15.664 11.912 15.664C12.2747 15.664 12.5787 15.7867 12.824 16.032C13.0693 16.2667 13.192 16.5707 13.192 16.944Z" fill="black"/>
<circle cx="38" cy="21" r="20" fill="#FFE896"/>
<path d="M47.4079 31.301C47.5085 30.54 47.1921 30.2588 46.8635 30.1869C46.6609 30.1426 46.4592 30.0011 46.4592 29.8044C46.4592 29.6389 46.3192 29.5038 46.1443 29.5004L29.0903 29.1712C28.8688 29.167 28.6512 29.227 28.4668 29.3433L28.2079 29.5065C25.5877 31.6002 34.7133 33.7793 37.7402 33.8648C40.767 33.9502 47.2272 32.6683 47.4079 31.301Z" fill="white"/>
<path fill-rule="evenodd" clip-rule="evenodd" d="M29.3412 28.7239C29.0687 28.7182 28.8009 28.7987 28.5741 28.9547L28.3066 29.1386L28.2951 29.1487C27.9367 29.4609 27.7345 29.8152 27.741 30.206C27.7473 30.5877 27.9523 30.9283 28.2386 31.2205C28.8081 31.8018 29.8296 32.3241 30.9813 32.7642C33.298 33.6493 36.3172 34.2649 37.8415 34.3118C39.3633 34.3586 41.7235 34.0323 43.723 33.5124C44.7233 33.2523 45.6476 32.9402 46.3385 32.5946C46.6833 32.4222 46.9814 32.2358 47.2032 32.0353C47.4209 31.8384 47.5958 31.5998 47.6298 31.3192C47.6836 30.8749 47.6314 30.5281 47.486 30.2711C47.3369 30.0077 47.11 29.8738 46.8893 29.8211C46.8279 29.8065 46.7716 29.7762 46.7355 29.7422C46.7011 29.7097 46.6981 29.6881 46.6981 29.6787C46.6981 29.3512 46.4441 29.0839 46.1267 29.0773L29.3412 28.7239ZM28.87 29.4126C29.0062 29.319 29.1668 29.2707 29.3303 29.2742L46.1158 29.6275C46.1429 29.628 46.1645 29.6508 46.1645 29.6787C46.1645 29.8803 46.2607 30.0402 46.3754 30.1483C46.4884 30.2549 46.6311 30.3244 46.7691 30.3573C46.8718 30.3818 46.9623 30.4374 47.0251 30.5484C47.0915 30.6658 47.1455 30.8783 47.1003 31.2509C47.0899 31.3372 47.0271 31.4626 46.8514 31.6215C46.6797 31.7767 46.4286 31.9379 46.1057 32.0994C45.4613 32.4217 44.5764 32.723 43.5925 32.9788C41.6234 33.4908 39.3147 33.8066 37.8574 33.7617C36.4025 33.7169 33.4411 33.1171 31.1667 32.2481C30.0229 31.811 29.0962 31.3216 28.6139 30.8293C28.3743 30.5848 28.2774 30.3733 28.2745 30.1966C28.2718 30.0312 28.3509 29.8242 28.6282 29.5789L28.87 29.4126Z" fill="black"/>
<path d="M49.6639 17.9858C49.6639 18.6036 50.1647 19.1044 50.7825 19.1044C51.4002 19.1044 51.901 18.6036 51.901 17.9858C51.901 17.3681 51.4002 16.8673 50.7825 16.8673C50.1647 16.8673 49.6639 17.3681 49.6639 17.9858Z" fill="white"/>
<path fill-rule="evenodd" clip-rule="evenodd" d="M50.7823 16.9717C51.326 16.9717 51.7666 17.3757 51.7666 17.874C51.7666 18.3723 51.326 18.7763 50.7823 18.7763C50.2387 18.7763 49.7981 18.3723 49.7981 17.874C49.7981 17.3757 50.2387 16.9717 50.7823 16.9717ZM52.1246 17.874C52.1246 17.1945 51.5236 16.6436 50.7823 16.6436C50.0411 16.6436 49.4401 17.1945 49.4401 17.874C49.4401 18.5535 50.0411 19.1044 50.7823 19.1044C51.5236 19.1044 52.1246 18.5535 52.1246 17.874Z" fill="black"/>
<path d="M26.175 17.9858C26.175 18.6036 25.6742 19.1044 25.0564 19.1044C24.4387 19.1044 23.9379 18.6036 23.9379 17.9858C23.9379 17.3681 24.4387 16.8673 25.0564 16.8673C25.6742 16.8673 26.175 17.3681 26.175 17.9858Z" fill="white"/>
<path fill-rule="evenodd" clip-rule="evenodd" d="M25.0564 16.9717C24.5127 16.9717 24.0721 17.3757 24.0721 17.874C24.0721 18.3723 24.5127 18.7763 25.0564 18.7763C25.6 18.7763 26.0406 18.3723 26.0406 17.874C26.0406 17.3757 25.6 16.9717 25.0564 16.9717ZM23.7141 17.874C23.7141 17.1945 24.3151 16.6436 25.0564 16.6436C25.7976 16.6436 26.3986 17.1945 26.3986 17.874C26.3986 18.5535 25.7976 19.1044 25.0564 19.1044C24.3151 19.1044 23.7141 18.5535 23.7141 17.874Z" fill="black"/>
<path d="M50.7721 19.1985L50.2791 16.8411C50.2278 16.5959 50.0082 16.4199 49.7534 16.4199C49.4049 16.4199 49.1488 16.7411 49.2322 17.0735L49.8186 19.4101C49.8725 19.6247 50.0684 19.7755 50.2933 19.7755C50.6028 19.7755 50.8344 19.4964 50.7721 19.1985Z" fill="white"/>
<path fill-rule="evenodd" clip-rule="evenodd" d="M50.3146 16.966C50.2508 16.6481 49.9776 16.4199 49.6606 16.4199C49.2272 16.4199 48.9086 16.8363 49.0124 17.2673L49.5533 19.5135C49.6219 19.7987 49.8718 19.9992 50.1586 19.9992C50.5534 19.9992 50.8488 19.6282 50.7693 19.2322L50.3146 16.966ZM49.6606 16.7734C49.8137 16.7734 49.9457 16.8836 49.9765 17.0372L50.4312 19.3033C50.4667 19.4801 50.3348 19.6457 50.1586 19.6457C50.0306 19.6457 49.9191 19.5562 49.8884 19.4289L49.3476 17.1827C49.2975 16.9745 49.4513 16.7734 49.6606 16.7734Z" fill="black"/>
<path d="M25.0666 19.1985L25.5596 16.8412C25.6109 16.5959 25.8305 16.4199 26.0853 16.4199C26.4338 16.4199 26.6899 16.7411 26.6065 17.0735L26.0201 19.4102C25.9662 19.6247 25.7703 19.7755 25.5454 19.7755C25.2359 19.7755 25.0043 19.4964 25.0666 19.1985Z" fill="white"/>
<path fill-rule="evenodd" clip-rule="evenodd" d="M25.5241 16.966C25.5879 16.6481 25.8611 16.4199 26.1781 16.4199C26.6115 16.4199 26.9301 16.8363 26.8263 17.2673L26.2854 19.5136C26.2168 19.7988 25.9669 19.9992 25.6801 19.9992C25.2853 19.9992 24.9899 19.6282 25.0694 19.2322L25.5241 16.966ZM26.1781 16.7734C26.025 16.7734 25.893 16.8836 25.8622 17.0372L25.4075 19.3034C25.372 19.4801 25.5039 19.6457 25.6801 19.6457C25.8081 19.6457 25.9196 19.5562 25.9503 19.4289L26.4911 17.1827C26.5412 16.9746 26.3874 16.7734 26.1781 16.7734Z" fill="black"/>
<path d="M50.0914 20.7808C50.3789 24.9039 47.4857 28.7431 46.0031 30.1473C38.77 34.1807 30.7283 30.8643 28.8414 29.4751C26.9545 28.0858 25.6516 24.8591 26.011 19.4812C26.3704 14.1033 29.9645 8.14285 38.0961 8.14285C46.2278 8.14285 49.732 15.627 50.0914 20.7808Z" fill="white"/>
<path fill-rule="evenodd" clip-rule="evenodd" d="M46.9857 12.9441C48.8789 15.402 49.8264 18.4973 50.0024 21.0207C50.141 23.008 49.513 24.9406 48.6575 26.5588C47.8118 28.1585 46.7544 29.4307 46.0366 30.1166C42.5091 32.073 38.7819 32.2494 35.6928 31.7605C32.588 31.2691 30.1575 30.1105 29.2586 29.4487C27.4903 28.1467 26.1912 25.0518 26.5472 19.7251C26.723 17.0949 27.6897 14.3314 29.5948 12.2294C31.4943 10.1337 34.3413 8.67866 38.3195 8.67866C42.2752 8.67865 45.0988 10.4943 46.9857 12.9441ZM47.4116 12.6177C45.4381 10.0554 42.4653 8.14285 38.3195 8.14285C34.1963 8.14285 31.2022 9.65703 29.1964 11.8701C27.1963 14.0769 26.1936 16.9616 26.0113 19.6894C25.6511 25.0787 26.9481 28.4134 28.9396 29.8798C29.9206 30.602 32.436 31.7876 35.6087 32.2897C38.7884 32.7929 42.6582 32.6144 46.3282 30.5678L46.3576 30.5514L46.3821 30.5282C47.141 29.8094 48.249 28.4802 49.1326 26.8088C50.016 25.1378 50.6861 23.1039 50.5382 20.9835C50.3561 18.3721 49.3789 15.1717 47.4116 12.6177Z" fill="black"/>
<path fill-rule="evenodd" clip-rule="evenodd" d="M38.0424 14.1197C42.2743 13.9732 45.3873 14.8529 46.3989 15.3014L46.5319 14.9618C45.4688 14.4904 42.3057 13.604 38.0312 13.7519L38.0424 14.1197Z" fill="black"/>
<path fill-rule="evenodd" clip-rule="evenodd" d="M34.4519 14.1829L36.9127 14.1829L36.9127 13.7355L34.4519 13.7355L34.4519 14.1829Z" fill="black"/>
<path fill-rule="evenodd" clip-rule="evenodd" d="M32.0384 14.6303L33.5573 14.4054L33.5102 13.9592L31.9913 14.184L32.0384 14.6303Z" fill="black"/>
<path fill-rule="evenodd" clip-rule="evenodd" d="M30.0696 15.0777L31.3201 14.736L31.2284 14.4066L29.9779 14.7483L30.0696 15.0777Z" fill="black"/>
<path d="M28.6357 19.8393C28.6357 21.7813 28.9788 24.5703 29.2042 26.0951C29.2493 26.4002 29.4264 26.6712 29.6985 26.8203C34.4601 29.4304 42.3053 27.9739 46.1971 26.75C46.5373 26.643 46.7936 26.3697 46.8712 26.0242C47.1344 24.853 47.4781 22.7302 47.4204 20.5593C47.3348 17.3403 47.2492 14.8414 38.0494 15.0955C28.8496 15.3496 28.6357 17.1285 28.6357 19.8393Z" fill="black"/>
<path fill-rule="evenodd" clip-rule="evenodd" d="M28.1883 19.9567C28.1883 21.9205 28.5342 24.7228 28.7593 26.2451C28.8192 26.6503 29.0567 27.0212 29.4338 27.2277C31.8975 28.5775 35.1236 28.8616 38.1843 28.6697C41.2541 28.4773 44.2101 27.8025 46.1736 27.1854C46.6325 27.0412 46.9821 26.6706 47.0878 26.2002C47.3545 25.014 47.7026 22.8673 47.6441 20.6651C47.6436 20.6478 47.6431 20.6305 47.6427 20.6131C47.6015 19.0602 47.5597 17.4809 46.2531 16.3814C45.6 15.8318 44.6607 15.4259 43.3256 15.1711C41.9901 14.9162 40.2353 14.8082 37.9276 14.8719C35.6241 14.9355 33.8691 15.0947 32.5325 15.3436C31.1989 15.5921 30.257 15.9341 29.5986 16.3799C28.9272 16.8346 28.5655 17.3872 28.3797 18.0128C28.1996 18.6192 28.1883 19.2864 28.1883 19.9567ZM29.1142 26.1935C28.8894 24.6734 28.5471 21.8928 28.5471 19.9567C28.5471 17.2542 28.7605 15.4807 37.9376 15.2274C47.1147 14.974 47.2001 17.4653 47.2854 20.6745C47.343 22.8388 47.0002 24.9552 46.7377 26.1228C46.6602 26.4673 46.4045 26.7397 46.0652 26.8464C42.183 28.0665 34.3572 29.5186 29.6073 26.9165C29.3359 26.7678 29.1592 26.4976 29.1142 26.1935Z" fill="black"/>
<mask id="mask0_581_3605" style="mask-type:alpha" maskUnits="userSpaceOnUse" x="28" y="15" width="20" height="14">
<path d="M28.6357 19.8393C28.6357 21.7813 28.9788 24.5703 29.2042 26.0951C29.2493 26.4002 29.4264 26.6712 29.6985 26.8203C34.4601 29.4304 42.3053 27.9739 46.1971 26.75C46.5373 26.643 46.7936 26.3697 46.8712 26.0242C47.1344 24.853 47.4781 22.7302 47.4204 20.5593C47.3348 17.3403 47.2492 14.8414 38.0494 15.0955C28.8496 15.3496 28.6357 17.1285 28.6357 19.8393Z" fill="black"/>
</mask>
<g mask="url(#mask0_581_3605)">
<path fill-rule="evenodd" clip-rule="evenodd" d="M47.8718 29.6442C47.3577 26.6113 46.3924 20.8683 46.3924 20.6712C46.3924 20.6373 46.3978 20.4598 46.4064 20.1764C46.4621 18.3531 46.6514 12.1467 46.3924 11.613C46.0931 10.9964 45.2036 10.484 44.4305 11.118C44.007 11.4653 43.2541 12.91 42.6066 14.1526C42.1265 15.0737 41.7043 15.8839 41.5171 16.0534C41.4856 16.082 41.4437 16.0721 41.4056 16.0529C41.0946 15.8966 40.0679 15.6377 37.9422 15.6341C37.9422 15.6341 37.9422 15.6341 37.9422 15.6341C37.9422 15.634 37.9422 15.634 37.9422 15.634C37.9346 15.634 37.9269 15.634 37.9194 15.634C37.9118 15.634 37.9042 15.634 37.8966 15.634C37.8966 15.634 37.8965 15.634 37.8965 15.6341C37.8965 15.6341 37.8965 15.6341 37.8965 15.6341C35.7709 15.6377 34.7442 15.8966 34.4331 16.0529C34.395 16.0721 34.3532 16.082 34.3216 16.0534C34.1344 15.8839 33.7122 15.0737 33.2322 14.1526C32.5846 12.91 31.8317 11.4653 31.4082 11.118C30.6351 10.484 29.7456 10.9964 29.4463 11.613C29.1873 12.1467 29.3767 18.3531 29.4323 20.1764C29.4409 20.4598 29.4463 20.6373 29.4463 20.6712C29.4463 20.8683 28.4811 26.6113 27.967 29.6442C27.9492 29.7488 28.0312 29.8422 28.1385 29.8422L37.8965 29.8422L37.9422 29.8422L47.7002 29.8422C47.8076 29.8422 47.8895 29.7487 47.8718 29.6442Z" fill="#FFAD06"/>
<path fill-rule="evenodd" clip-rule="evenodd" d="M44.0713 29.6706L44.0713 27.8483C44.0713 27.4786 44.0108 27.1112 43.8921 26.7605L43.7718 26.4054C43.6222 25.9632 43.3828 25.5558 43.0684 25.208L40.0187 21.8347C39.8761 21.6769 39.7106 21.5409 39.5277 21.4309C39.1871 21.2261 38.796 21.1177 38.3972 21.1177L37.9099 21.1177L37.7053 21.1177L37.2181 21.1177C36.8192 21.1177 36.4281 21.2261 36.0875 21.4309C35.9046 21.5409 35.7392 21.6769 35.5966 21.8347L32.5469 25.208C32.2324 25.5558 31.9931 25.9632 31.8434 26.4054L31.7231 26.7605C31.6044 27.1112 31.5439 27.4786 31.5439 27.8483L31.5439 29.6706C31.5439 29.7654 31.6217 29.8422 31.7177 29.8422L37.7361 29.8422C37.7616 29.8422 37.7858 29.8368 37.8076 29.8271C37.8294 29.8368 37.8536 29.8422 37.8791 29.8422L43.8975 29.8422C43.9935 29.8422 44.0713 29.7654 44.0713 29.6706Z" fill="white"/>
<path fill-rule="evenodd" clip-rule="evenodd" d="M39.3735 26.4866L36.4654 26.4866C36.4654 25.6218 37.1235 24.9207 37.9195 24.9207C38.7154 24.9207 39.3735 25.6218 39.3735 26.4866Z" fill="black"/>
<path fill-rule="evenodd" clip-rule="evenodd" d="M41.0795 18.657C40.8786 18.657 40.7157 18.7933 40.7157 18.9615L40.7157 19.6947C40.7157 19.8629 40.8786 19.9992 41.0795 19.9992L43.0861 19.9992C43.1354 19.9992 43.1764 19.967 43.1764 19.9258C43.1764 19.225 42.4977 18.657 41.6604 18.657L41.0795 18.657Z" fill="black"/>
<path fill-rule="evenodd" clip-rule="evenodd" d="M37.812 24.2496C38.3704 24.2458 39.2452 23.8853 39.6187 23.074C40.0874 22.056 39.8408 21.1204 37.812 21.1177L37.812 21.1177C37.8105 21.1177 37.8091 21.1177 37.8076 21.1177C37.8061 21.1177 37.8046 21.1177 37.8032 21.1177L37.8032 21.1177C35.7744 21.1204 35.5278 22.056 35.9965 23.074C36.37 23.8853 37.2448 24.2458 37.8032 24.2496L37.8032 24.2496C37.8046 24.2496 37.8061 24.2496 37.8076 24.2496C37.8091 24.2496 37.8105 24.2496 37.812 24.2496L37.812 24.2496Z" fill="black"/>
<path opacity="0.6" d="M36.9128 21.677C36.9128 21.8623 37.3635 22.0125 37.9195 22.0125C38.4754 22.0125 38.9261 21.8623 38.9261 21.677C38.9261 21.4917 38.4754 21.3414 37.9195 21.3414C37.3635 21.3414 36.9128 21.4917 36.9128 21.677Z" fill="white"/>
<path fill-rule="evenodd" clip-rule="evenodd" d="M34.7594 18.657C34.9603 18.657 35.1232 18.7933 35.1232 18.9614L35.1232 19.6947C35.1232 19.8629 34.9603 19.9992 34.7594 19.9992L32.7528 19.9992C32.7035 19.9992 32.6624 19.9669 32.6624 19.9257C32.6624 19.225 33.3411 18.657 34.1784 18.657L34.7594 18.657Z" fill="black"/>
</g>
<path opacity="0.3" d="M28.8595 20.063C28.8595 22.005 29.1986 24.794 29.4212 26.3188C29.4658 26.6239 29.6408 26.8949 29.9096 27.044C34.6146 29.6541 42.3664 28.1975 46.2118 26.9737C46.548 26.8667 46.8013 26.5934 46.878 26.2479C47.138 25.0767 47.4776 22.9539 47.4206 20.783C47.336 17.564 47.2514 15.0651 38.1611 15.3192C29.0709 15.5733 28.8595 17.3522 28.8595 20.063Z" fill="black"/>
<path opacity="0.3" fill-rule="evenodd" clip-rule="evenodd" d="M28.412 19.9567C28.412 21.9205 28.7618 24.7228 28.9895 26.2451C29.0501 26.6503 29.2904 27.0212 29.6718 27.2277C32.1638 28.5775 35.4269 28.8616 38.5229 28.6697C41.6279 28.4773 44.618 27.8025 46.604 27.1854C47.0682 27.0412 47.4218 26.6706 47.5288 26.2002C47.7985 25.014 48.1506 22.8673 48.0914 20.6651C48.0909 20.6478 48.0904 20.6305 48.09 20.6131C48.0484 19.0602 48.006 17.4809 46.6844 16.3814C46.0238 15.8318 45.0737 15.4259 43.7233 15.1711C42.3724 14.9162 40.5974 14.8082 38.2633 14.8719C35.9332 14.9355 34.1581 15.0947 32.8061 15.3436C31.4572 15.5921 30.5045 15.9341 29.8385 16.3799C29.1593 16.8346 28.7935 17.3872 28.6056 18.0128C28.4234 18.6192 28.412 19.2864 28.412 19.9567ZM29.3485 26.1935C29.1212 24.6734 28.7749 21.8928 28.7749 19.9567C28.7749 17.2542 28.9908 15.4807 38.2734 15.2274C47.5559 14.974 47.6423 17.4653 47.7286 20.6745C47.7869 22.8388 47.4401 24.9552 47.1746 26.1228C47.0962 26.4673 46.8376 26.7397 46.4943 26.8464C42.5675 28.0665 34.6518 29.5186 29.8473 26.9165C29.5728 26.7678 29.394 26.4976 29.3485 26.1935Z" fill="black"/>
<path opacity="0.4" d="M46.0825 17.9387C46.01 17.1524 45.2966 16.9261 44.949 16.9112C43.483 16.6878 40.3696 16.2857 39.6442 16.4644C38.7374 16.6878 39.1001 18.1174 40.551 18.5641C42.0019 19.0108 42.4553 17.76 43.5434 21.1998C44.6316 24.6397 44.949 24.0143 45.8105 23.9249C46.672 23.8356 46.1732 18.9215 46.0825 17.9387Z" fill="white"/>
<path opacity="0.4" d="M31.5871 23.8159C31.0758 23.8159 31.47 22.7322 31.3315 22.3765C30.7918 21.8967 29.721 21.5128 29.7551 23.8159C29.7977 26.6948 30.735 26.4831 33.5042 26.4831C36.2735 26.4831 35.1723 25.0988 34.9102 24.6627C34.5641 24.087 32.2261 23.8159 31.5871 23.8159Z" fill="white"/>
<path d="M67.66 27.5V13.64H76.42V15.78H70.18V19.32H75.72V21.46H70.18V27.5H67.66ZM78.6756 13.64H81.1956V27.5H78.6756V13.64ZM93.2755 25.32V27.5H84.5155V13.64H87.0355V25.32H93.2755ZM95.1991 27.5V13.64H104.099V15.78H97.7191V19.2H103.399V21.3H97.7191V25.36H104.579V27.5H95.1991ZM109.438 25.42C109.584 25.4333 109.778 25.4467 110.018 25.46C110.258 25.46 110.584 25.46 110.998 25.46C112.691 25.46 113.951 25.0333 114.778 24.18C115.618 23.3133 116.038 22.1067 116.038 20.56C116.038 18.9867 115.631 17.78 114.818 16.94C114.004 16.1 112.744 15.68 111.038 15.68C110.291 15.68 109.758 15.7 109.438 15.74V25.42ZM118.678 20.56C118.678 21.76 118.491 22.8067 118.118 23.7C117.744 24.58 117.211 25.32 116.518 25.92C115.838 26.5067 115.011 26.9467 114.038 27.24C113.078 27.52 112.011 27.66 110.838 27.66C110.278 27.66 109.644 27.6333 108.938 27.58C108.231 27.54 107.558 27.4467 106.918 27.3V13.84C107.558 13.6933 108.238 13.6 108.958 13.56C109.678 13.52 110.318 13.5 110.878 13.5C112.038 13.5 113.098 13.64 114.058 13.92C115.018 14.1867 115.838 14.6133 116.518 15.2C117.211 15.7733 117.744 16.5067 118.118 17.4C118.491 18.28 118.678 19.3333 118.678 20.56ZM123.49 20.56C123.49 21.32 123.583 22.0133 123.77 22.64C123.956 23.2533 124.223 23.78 124.57 24.22C124.93 24.6467 125.363 24.98 125.87 25.22C126.376 25.46 126.95 25.58 127.59 25.58C128.216 25.58 128.783 25.46 129.29 25.22C129.796 24.98 130.223 24.6467 130.57 24.22C130.93 23.78 131.203 23.2533 131.39 22.64C131.576 22.0133 131.67 21.32 131.67 20.56C131.67 19.8 131.576 19.1133 131.39 18.5C131.203 17.8733 130.93 17.3467 130.57 16.92C130.223 16.48 129.796 16.14 129.29 15.9C128.783 15.66 128.216 15.54 127.59 15.54C126.95 15.54 126.376 15.66 125.87 15.9C125.363 16.14 124.93 16.48 124.57 16.92C124.223 17.36 123.956 17.8867 123.77 18.5C123.583 19.1133 123.49 19.8 123.49 20.56ZM134.31 20.56C134.31 21.7467 134.13 22.7933 133.77 23.7C133.423 24.6067 132.943 25.3667 132.33 25.98C131.73 26.58 131.023 27.0333 130.21 27.34C129.396 27.6467 128.53 27.8 127.61 27.8C126.69 27.8 125.816 27.6467 124.99 27.34C124.176 27.0333 123.463 26.58 122.85 25.98C122.25 25.3667 121.77 24.6067 121.41 23.7C121.05 22.7933 120.87 21.7467 120.87 20.56C120.87 19.3733 121.05 18.3333 121.41 17.44C121.77 16.5333 122.256 15.7733 122.87 15.16C123.496 14.5467 124.216 14.0867 125.03 13.78C125.843 13.4733 126.703 13.32 127.61 13.32C128.516 13.32 129.376 13.4733 130.19 13.78C131.003 14.0867 131.71 14.5467 132.31 15.16C132.923 15.7733 133.41 16.5333 133.77 17.44C134.13 18.3333 134.31 19.3733 134.31 20.56ZM143.554 15.54C142.127 15.54 141.034 15.9867 140.274 16.88C139.527 17.76 139.154 18.9867 139.154 20.56C139.154 21.3067 139.241 21.9933 139.414 22.62C139.601 23.2333 139.867 23.76 140.214 24.2C140.574 24.64 141.014 24.9867 141.534 25.24C142.067 25.48 142.687 25.6 143.394 25.6C143.834 25.6 144.214 25.5867 144.534 25.56C144.854 25.52 145.107 25.4733 145.294 25.42V20.44H147.814V27.1C147.467 27.2333 146.881 27.38 146.054 27.54C145.227 27.7 144.274 27.78 143.194 27.78C142.194 27.78 141.281 27.62 140.454 27.3C139.627 26.98 138.921 26.5133 138.334 25.9C137.761 25.2867 137.314 24.5333 136.994 23.64C136.674 22.7467 136.514 21.72 136.514 20.56C136.514 19.4 136.687 18.3733 137.034 17.48C137.394 16.5867 137.881 15.8333 138.494 15.22C139.107 14.5933 139.827 14.12 140.654 13.8C141.481 13.48 142.361 13.32 143.294 13.32C143.934 13.32 144.501 13.3667 144.994 13.46C145.501 13.54 145.934 13.6333 146.294 13.74C146.654 13.8467 146.947 13.96 147.174 14.08C147.414 14.2 147.581 14.2867 147.674 14.34L146.914 16.4C146.514 16.16 146.014 15.96 145.414 15.8C144.827 15.6267 144.207 15.54 143.554 15.54ZM150.726 27.5V13.64H159.626V15.78H153.246V19.2H158.926V21.3H153.246V25.36H160.106V27.5H150.726ZM161.245 20.68H166.625V22.9H161.245V20.68ZM170.774 15.38C170.307 15.38 169.86 15.44 169.434 15.56C169.007 15.6667 168.56 15.8467 168.094 16.1L167.414 14.24C167.907 13.96 168.467 13.74 169.094 13.58C169.734 13.4067 170.387 13.32 171.054 13.32C171.854 13.32 172.514 13.4333 173.034 13.66C173.554 13.8733 173.967 14.1467 174.274 14.48C174.58 14.8133 174.794 15.18 174.914 15.58C175.034 15.98 175.094 16.3667 175.094 16.74C175.094 17.1933 175.007 17.6 174.834 17.96C174.674 18.32 174.467 18.6533 174.214 18.96C173.96 19.2667 173.687 19.56 173.394 19.84C173.1 20.1067 172.827 20.3867 172.574 20.68C172.32 20.96 172.107 21.26 171.934 21.58C171.774 21.9 171.694 22.26 171.694 22.66C171.694 22.7267 171.694 22.8067 171.694 22.9C171.694 22.98 171.7 23.06 171.714 23.14H169.634C169.607 23.0067 169.587 22.8667 169.574 22.72C169.56 22.56 169.554 22.4133 169.554 22.28C169.554 21.84 169.627 21.4467 169.774 21.1C169.92 20.7533 170.107 20.4333 170.334 20.14C170.56 19.8467 170.8 19.5733 171.054 19.32C171.32 19.0667 171.567 18.8133 171.794 18.56C172.02 18.3067 172.207 18.0467 172.354 17.78C172.5 17.5133 172.574 17.22 172.574 16.9C172.574 16.46 172.42 16.1 172.114 15.82C171.82 15.5267 171.374 15.38 170.774 15.38ZM172.334 26.18C172.334 26.6467 172.18 27.0267 171.874 27.32C171.567 27.6133 171.187 27.76 170.734 27.76C170.294 27.76 169.914 27.6133 169.594 27.32C169.287 27.0267 169.134 26.6467 169.134 26.18C169.134 25.7133 169.287 25.3333 169.594 25.04C169.914 24.7333 170.294 24.58 170.734 24.58C171.187 24.58 171.567 24.7333 171.874 25.04C172.18 25.3333 172.334 25.7133 172.334 26.18Z" fill="black"/>
</svg>
