<svg width="16" height="16" viewBox="0 0 16 16" fill="none" xmlns="http://www.w3.org/2000/svg">
<path d="M6.66667 3.36462C6.70882 3.10075 6.77174 2.86927 6.85846 2.66659C7.31253 1.60528 8.33334 1.33325 10.6138 1.33325C14 1.33325 14.6667 2.66659 14.6667 5.39599C14.6667 7.33325 14.518 8.80025 13.3333 9.17368C13.1333 9.23674 12.9037 9.2877 12.6403 9.33325" stroke="#FFAD06" stroke-width="1.5" stroke-linecap="round" stroke-linejoin="round"/>
<path d="M6.00001 14.6666C9.33334 14.6666 10.6667 13.6666 10.6667 9.99992C10.6667 6.33325 9.33334 5.33325 6.00001 5.33325C2.66668 5.33325 1.33334 6.11103 1.33334 9.99992C1.33334 13.8888 2.66668 14.6666 6.00001 14.6666Z" stroke="#FFAD06" stroke-width="1.5" stroke-linecap="round" stroke-linejoin="round"/>
<path d="M4.66667 6C4.66667 6 5.06971 7.59695 4.33333 8.33333C3.59695 9.06971 2 8.66667 2 8.66667" stroke="#FFAD06" stroke-width="1.5" stroke-linecap="round" stroke-linejoin="round"/>
</svg>
