<svg width="109" height="101" viewBox="0 0 109 101" fill="none" xmlns="http://www.w3.org/2000/svg">
<path d="M90.9038 88.8492C91.2896 85.9294 90.0758 84.8506 88.815 84.5748C88.0378 84.4049 87.2639 83.8617 87.2639 83.1073C87.2639 82.4722 86.7269 81.9538 86.0556 81.9409L20.6262 80.6779C19.7762 80.6615 18.9412 80.8919 18.2338 81.3379L17.2406 81.9642C7.18771 89.9968 42.1994 98.3574 53.8122 98.6852C65.425 99.0131 90.2105 94.095 90.9038 88.8492Z" fill="white"/>
<path fill-rule="evenodd" clip-rule="evenodd" d="M21.5893 78.9617C20.5435 78.9397 19.5163 79.2487 18.646 79.8471L17.6199 80.5526L17.5755 80.5913C16.2008 81.7892 15.425 83.1485 15.4497 84.6478C15.4739 86.1122 16.2603 87.4191 17.3589 88.5402C19.544 90.7701 23.4631 92.7741 27.8818 94.4625C36.77 97.8586 48.3533 100.22 54.2015 100.4C60.0403 100.58 69.0953 99.328 76.7665 97.3334C80.6046 96.3354 84.1506 95.1378 86.8016 93.812C88.1244 93.1504 89.2681 92.4355 90.1188 91.6661C90.9542 90.9107 91.625 89.9952 91.7555 88.9186C91.9621 87.214 91.7616 85.8835 91.2037 84.8974C90.632 83.8868 89.7615 83.3732 88.9145 83.1712C88.6789 83.1151 88.4629 82.999 88.3245 82.8684C88.1924 82.7438 88.1809 82.6607 88.1809 82.6246C88.1809 81.3684 87.2066 80.3428 85.9889 80.3172L21.5893 78.9617ZM19.7815 81.6039C20.3037 81.2449 20.92 81.0595 21.5475 81.0727L85.9471 82.4282C86.0508 82.4304 86.1337 82.5177 86.1337 82.6246C86.1337 83.3983 86.503 84.0116 86.943 84.4266C87.3766 84.8355 87.924 85.1022 88.4533 85.2284C88.8473 85.3224 89.1946 85.5357 89.4356 85.9615C89.6904 86.4119 89.8974 87.2273 89.7241 88.6567C89.684 88.9877 89.4433 89.4689 88.7692 90.0785C88.1106 90.6741 87.1471 91.2926 85.9083 91.9122C83.436 93.1487 80.0409 94.3045 76.2661 95.286C68.7115 97.2503 59.8539 98.4618 54.2626 98.2897C48.6808 98.1178 37.3188 95.8166 28.5929 92.4825C24.2045 90.8058 20.6493 88.9278 18.7988 87.0393C17.8795 86.1012 17.5078 85.2898 17.4966 84.6119C17.4861 83.9773 17.7896 83.1829 18.8538 82.2418L19.7815 81.6039Z" fill="black"/>
<path d="M99.5589 37.7637C99.5589 40.1338 101.48 42.0551 103.85 42.0551C106.22 42.0551 108.142 40.1338 108.142 37.7637C108.142 35.3937 106.22 33.4724 103.85 33.4724C101.48 33.4724 99.5589 35.3937 99.5589 37.7637Z" fill="white"/>
<path fill-rule="evenodd" clip-rule="evenodd" d="M103.85 33.8729C105.936 33.8729 107.627 35.4228 107.627 37.3346C107.627 39.2464 105.936 40.7963 103.85 40.7963C101.765 40.7963 100.074 39.2464 100.074 37.3346C100.074 35.4228 101.765 33.8729 103.85 33.8729ZM109 37.3346C109 34.7276 106.694 32.6141 103.85 32.6141C101.006 32.6141 98.7008 34.7276 98.7008 37.3346C98.7008 39.9416 101.006 42.0551 103.85 42.0551C106.694 42.0551 109 39.9416 109 37.3346Z" fill="black"/>
<path d="M9.44108 37.7637C9.44108 40.1338 7.51978 42.0551 5.14974 42.0551C2.7797 42.0551 0.858398 40.1338 0.858398 37.7637C0.858398 35.3937 2.7797 33.4724 5.14974 33.4724C7.51978 33.4724 9.44108 35.3937 9.44108 37.7637Z" fill="white"/>
<path fill-rule="evenodd" clip-rule="evenodd" d="M5.14961 33.8729C3.06397 33.8729 1.37323 35.4228 1.37323 37.3346C1.37323 39.2464 3.06397 40.7963 5.14961 40.7963C7.23524 40.7963 8.92598 39.2464 8.92598 37.3346C8.92598 35.4228 7.23524 33.8729 5.14961 33.8729ZM0 37.3346C0 34.7276 2.30556 32.6141 5.14961 32.6141C7.99366 32.6141 10.2992 34.7276 10.2992 37.3346C10.2992 39.9416 7.99366 42.0551 5.14961 42.0551C2.30556 42.0551 0 39.9416 0 37.3346Z" fill="black"/>
<path d="M103.812 42.4162L101.92 33.3719C101.723 32.4311 100.88 31.7559 99.903 31.7559C98.566 31.7559 97.5835 32.9881 97.9036 34.2635L100.153 43.2283C100.36 44.0514 101.112 44.6299 101.974 44.6299C103.162 44.6299 104.051 43.5592 103.812 42.4162Z" fill="white"/>
<path fill-rule="evenodd" clip-rule="evenodd" d="M102.056 33.851C101.811 32.6313 100.763 31.7559 99.5472 31.7559C97.8841 31.7559 96.662 33.3535 97.0602 35.007L99.1352 43.625C99.3987 44.7192 100.357 45.4881 101.458 45.4881C102.972 45.4881 104.106 44.0648 103.801 42.5455L102.056 33.851ZM99.5472 33.1121C100.134 33.1121 100.641 33.5349 100.759 34.124L102.503 42.8185C102.64 43.4966 102.134 44.1319 101.458 44.1319C100.966 44.1319 100.539 43.7887 100.421 43.3003L98.3461 34.6823C98.1538 33.8837 98.744 33.1121 99.5472 33.1121Z" fill="black"/>
<path d="M5.18846 42.4162L7.07994 33.3719C7.27669 32.4311 8.11951 31.7559 9.09705 31.7559C10.434 31.7559 11.4165 32.9881 11.0964 34.2635L8.84661 43.2283C8.64003 44.0514 7.88849 44.6299 7.02561 44.6299C5.83804 44.6299 4.94944 43.5592 5.18846 42.4162Z" fill="white"/>
<path fill-rule="evenodd" clip-rule="evenodd" d="M6.94376 33.851C7.1885 32.6313 8.23688 31.7559 9.45283 31.7559C11.1159 31.7559 12.338 33.3535 11.9398 35.007L9.86479 43.625C9.60132 44.7192 8.64282 45.4881 7.54231 45.4881C6.02768 45.4881 4.89436 44.0648 5.19922 42.5455L6.94376 33.851ZM9.45283 33.1121C8.86558 33.1121 8.35926 33.5349 8.24106 34.124L6.49651 42.8185C6.36045 43.4966 6.86628 44.1319 7.54231 44.1319C8.0335 44.1319 8.46131 43.7887 8.57891 43.3003L10.6539 34.6823C10.8462 33.8837 10.256 33.1121 9.45283 33.1121Z" fill="black"/>
<path d="M101.199 48.4871C102.302 64.3056 91.2017 79.0352 85.5137 84.4227C57.763 99.8973 26.9099 87.1737 19.6706 81.8436C12.4313 76.5134 7.43269 64.1337 8.81161 43.5009C10.1905 22.868 23.9797 -4.3869e-05 55.1777 -4.3869e-05C86.3756 -4.3869e-05 99.82 28.714 101.199 48.4871Z" fill="white"/>
<path fill-rule="evenodd" clip-rule="evenodd" d="M89.284 18.4206C96.5475 27.8506 100.183 39.7261 100.858 49.4073C101.389 57.0321 98.9802 64.4466 95.698 70.6551C92.4533 76.7925 88.3965 81.6732 85.6424 84.3048C72.1087 91.8111 57.809 92.4875 45.9573 90.6119C34.0452 88.7267 24.7204 84.2816 21.2716 81.7423C14.4875 76.7472 9.50332 64.8732 10.8691 44.4365C11.5435 34.3456 15.2524 23.7429 22.5617 15.6785C29.8492 7.63812 40.772 2.05562 56.0351 2.05562C71.2115 2.05562 82.0445 9.02174 89.284 18.4206ZM90.918 17.1681C83.3463 7.33786 71.9409 -4.3869e-05 56.0351 -4.3869e-05C40.2159 -4.3869e-05 28.7286 5.80928 21.0331 14.2999C13.3593 22.7665 9.5124 33.834 8.81297 44.2997C7.43115 64.9764 12.407 77.7703 20.0478 83.3962C23.8115 86.1673 33.4622 90.7158 45.6345 92.6422C57.8341 94.5729 72.6808 93.8879 86.7614 86.036L86.8743 85.973L86.9681 85.8842C89.8798 83.1263 94.1306 78.0266 97.5207 71.6141C100.91 65.2031 103.481 57.3999 102.913 49.2646C102.215 39.2457 98.4657 26.9671 90.918 17.1681Z" fill="black"/>
<path fill-rule="evenodd" clip-rule="evenodd" d="M54.9719 22.9306C71.208 22.3688 83.1514 25.7438 87.0327 27.4645L87.543 26.1615C83.4643 24.3532 71.3287 20.9522 54.9288 21.5197L54.9719 22.9306Z" fill="black"/>
<path fill-rule="evenodd" clip-rule="evenodd" d="M41.1968 23.1732H50.6377V21.4566H41.1968V23.1732Z" fill="black"/>
<path fill-rule="evenodd" clip-rule="evenodd" d="M31.9365 24.8897L37.7637 24.027L37.583 22.3149L31.7558 23.1776L31.9365 24.8897Z" fill="black"/>
<path fill-rule="evenodd" clip-rule="evenodd" d="M24.383 26.6063L29.1807 25.2953L28.8287 24.0315L24.0311 25.3425L24.383 26.6063Z" fill="black"/>
<path d="M18.8821 44.8746C18.8821 52.3255 20.1987 63.0259 21.0633 68.8759C21.2363 70.0463 21.9159 71.086 22.9597 71.6581C41.2284 81.6722 71.3274 76.0839 86.2587 71.3885C87.5639 70.9781 88.5473 69.9296 88.8452 68.604C89.8547 64.1104 91.1734 55.9661 90.9519 47.6371C90.6236 35.287 90.2953 25.6995 54.9991 26.6745C19.7029 27.6495 18.8821 34.4745 18.8821 44.8746Z" fill="black"/>
<path fill-rule="evenodd" clip-rule="evenodd" d="M17.1657 45.3252C17.1657 52.8597 18.4924 63.6111 19.3561 69.4514C19.586 71.0062 20.4974 72.429 21.9439 73.2215C31.3964 78.3999 43.7734 79.4899 55.5163 78.7538C67.294 78.0156 78.6352 75.4266 86.1683 73.0591C87.9291 72.5057 89.2701 71.084 89.6759 69.2792C90.6989 64.7282 92.0347 56.4921 91.8099 48.0433C91.8082 47.9768 91.8064 47.9103 91.8046 47.8438C91.6468 41.8857 91.4862 35.8267 86.4733 31.6081C83.9676 29.4994 80.3639 27.9422 75.2417 26.9647C70.1178 25.9868 63.3853 25.5722 54.5316 25.8167C45.6938 26.0607 38.9607 26.6715 33.8326 27.6267C28.7161 28.5798 25.1023 29.8922 22.5763 31.6026C20.0002 33.3468 18.6125 35.4671 17.8998 37.8673C17.2089 40.1939 17.1657 42.7536 17.1657 45.3252ZM20.7179 69.2535C19.8555 63.4213 18.5421 52.7535 18.5421 45.3252C18.5421 34.9568 19.3609 28.1526 54.5699 27.1806C89.779 26.2085 90.1065 35.7669 90.434 48.0793C90.6549 56.383 89.3395 64.5025 88.3324 68.9824C88.0353 70.304 87.0543 71.3492 85.7523 71.7584C70.8579 76.4396 40.8332 82.0109 22.6096 72.0273C21.5684 71.4569 20.8905 70.4203 20.7179 69.2535Z" fill="black"/>
<mask id="mask0_385_2021" style="mask-type:alpha" maskUnits="userSpaceOnUse" x="18" y="26" width="73" height="52">
<path d="M18.8821 44.8746C18.8821 52.3255 20.1987 63.0259 21.0633 68.8759C21.2363 70.0463 21.9159 71.086 22.9597 71.6582C41.2284 81.6722 71.3274 76.084 86.2587 71.3885C87.5639 70.9781 88.5473 69.9296 88.8452 68.604C89.8547 64.1104 91.1734 55.9662 90.9519 47.6371C90.6236 35.2871 90.2953 25.6996 54.9991 26.6746C19.7029 27.6496 18.8821 34.4746 18.8821 44.8746Z" fill="black"/>
</mask>
<g mask="url(#mask0_385_2021)">
<path fill-rule="evenodd" clip-rule="evenodd" d="M92.6831 82.4924C90.7107 70.8562 87.0073 48.8224 87.0073 48.0661C87.0073 47.9362 87.028 47.2552 87.0612 46.168C87.2746 39.1727 88.001 15.361 87.0073 13.3135C85.8591 10.9478 82.4465 8.98194 79.4803 11.4143C77.8554 12.7468 74.9669 18.2895 72.4825 23.0568C70.6407 26.591 69.0209 29.6991 68.3027 30.3497C68.1817 30.4594 68.0212 30.4213 67.8748 30.3477C66.6815 29.7479 62.7424 28.7548 54.5871 28.7408C54.5871 28.7408 54.587 28.7407 54.587 28.7407C54.587 28.7407 54.587 28.7406 54.5869 28.7406C54.5577 28.7406 54.5286 28.7406 54.4995 28.7407C54.4704 28.7406 54.4412 28.7406 54.412 28.7406C54.4119 28.7406 54.4119 28.7407 54.4119 28.7407C54.4119 28.7407 54.4119 28.7408 54.4118 28.7408C46.2565 28.7548 42.3174 29.7479 41.1242 30.3477C40.9778 30.4213 40.8173 30.4594 40.6962 30.3497C39.978 29.6991 38.3583 26.591 36.5165 23.0568C34.032 18.2895 31.1436 12.7468 29.5186 11.4143C26.5525 8.98194 23.1399 10.9478 21.9917 13.3135C20.998 15.361 21.7243 39.1727 21.9377 46.168C21.9709 47.2552 21.9917 47.9362 21.9917 48.0661C21.9917 48.8224 18.2882 70.8562 16.3158 82.4924C16.2478 82.8935 16.5622 83.2519 16.9741 83.2519H54.4119H54.587H92.0248C92.4367 83.2519 92.7511 82.8935 92.6831 82.4924Z" fill="#FFAD06"/>
<path fill-rule="evenodd" clip-rule="evenodd" d="M78.1016 82.5936V75.6022C78.1016 74.1836 77.8693 72.7743 77.4139 71.4288L76.9526 70.0662C76.3783 68.3698 75.46 66.8067 74.2536 65.4723L62.553 52.5301C62.0059 51.9249 61.3712 51.4029 60.6695 50.981C59.3627 50.1952 57.8621 49.7795 56.332 49.7795H54.4626H53.6775H51.8082C50.278 49.7795 48.7774 50.1952 47.4706 50.981C46.7689 51.4029 46.1342 51.9249 45.5871 52.5301L33.8866 65.4723C32.6802 66.8067 31.7618 68.3698 31.1875 70.0662L30.7263 71.4288C30.2708 72.7743 30.0386 74.1836 30.0386 75.6022V82.5936C30.0386 82.9572 30.3371 83.252 30.7054 83.252H53.7958C53.8936 83.252 53.9864 83.2312 54.0701 83.1939C54.1537 83.2312 54.2466 83.252 54.3443 83.252H77.4347C77.803 83.252 78.1016 82.9572 78.1016 82.5936Z" fill="white"/>
<path fill-rule="evenodd" clip-rule="evenodd" d="M60.0781 70.3779H48.9206C48.9207 67.0598 51.4456 64.37 54.4994 64.37C57.5532 64.37 60.078 67.0598 60.0781 70.3779Z" fill="black"/>
<path fill-rule="evenodd" clip-rule="evenodd" d="M66.6238 40.3385C65.8529 40.3385 65.228 40.8615 65.228 41.5067V44.32C65.228 44.9651 65.8529 45.4881 66.6238 45.4881H74.3225C74.5116 45.4881 74.6689 45.3646 74.6689 45.2064C74.6689 42.5179 72.0648 40.3385 68.8524 40.3385H66.6238Z" fill="black"/>
<path fill-rule="evenodd" clip-rule="evenodd" d="M54.0875 61.7951C56.2297 61.7807 59.586 60.3975 61.019 57.2849C62.8173 53.3793 61.8712 49.7899 54.0875 49.7795V49.7795C54.0818 49.7795 54.0762 49.7795 54.0705 49.7795C54.0649 49.7795 54.0592 49.7795 54.0536 49.7795V49.7795C46.2698 49.7899 45.3238 53.3793 47.122 57.2849C48.5551 60.3975 51.9113 61.7807 54.0536 61.7951V61.7952C54.0592 61.7952 54.0649 61.7952 54.0705 61.7952C54.0762 61.7952 54.0818 61.7952 54.0875 61.7952V61.7951Z" fill="black"/>
<path opacity="0.6" d="M50.6369 51.9252C50.6369 52.6362 52.3661 53.2126 54.4991 53.2126C56.6322 53.2126 58.3613 52.6362 58.3613 51.9252C58.3613 51.2142 56.6322 50.6378 54.4991 50.6378C52.3661 50.6378 50.6369 51.2142 50.6369 51.9252Z" fill="white"/>
<path fill-rule="evenodd" clip-rule="evenodd" d="M42.3753 40.3385C43.1461 40.3385 43.771 40.8615 43.771 41.5066V44.3201C43.771 44.9652 43.1461 45.4881 42.3753 45.4881H34.6769C34.4876 45.4881 34.3301 45.3645 34.3301 45.2061C34.3301 42.5178 36.9341 40.3385 40.1464 40.3385H42.3753Z" fill="black"/>
</g>
<path opacity="0.3" d="M19.7403 45.7329C19.7403 53.1838 21.0413 63.8842 21.8956 69.7342C22.0665 70.9046 22.738 71.9443 23.7694 72.5165C41.8207 82.5305 71.5613 76.9422 86.3149 72.2468C87.6045 71.8364 88.5762 70.7879 88.8705 69.4623C89.8681 64.9687 91.171 56.8244 90.9522 48.4954C90.6278 36.1454 90.3034 26.5579 55.4274 27.5329C20.5514 28.5079 19.7403 35.3329 19.7403 45.7329Z" fill="black"/>
<path opacity="0.3" fill-rule="evenodd" clip-rule="evenodd" d="M18.0232 45.3252C18.0232 52.8597 19.3652 63.6111 20.2388 69.4514C20.4714 71.0062 21.3932 72.429 22.8563 73.2215C32.4175 78.3999 44.9368 79.4899 56.8146 78.7538C68.7277 78.0156 80.1993 75.4266 87.819 73.0591C89.6 72.5057 90.9565 71.084 91.3669 69.2792C92.4017 64.7282 93.7528 56.4921 93.5255 48.0433C93.5237 47.9768 93.5219 47.9103 93.5201 47.8438C93.3604 41.8857 93.198 35.8267 88.1275 31.6081C85.593 29.4994 81.9478 27.9422 76.7668 26.9647C71.584 25.9868 64.7741 25.5722 55.8187 25.8167C46.8793 26.0607 40.0688 26.6715 34.8817 27.6267C29.7064 28.5798 26.0511 29.8922 23.496 31.6026C20.8904 33.3468 19.4867 35.4671 18.7658 37.8673C18.0669 40.1939 18.0232 42.7536 18.0232 45.3252ZM21.6163 69.2535C20.7439 63.4213 19.4154 52.7535 19.4154 45.3252C19.4154 34.9568 20.2437 28.1526 55.8574 27.1806C91.4712 26.2085 91.8024 35.7669 92.1337 48.0793C92.3572 56.383 91.0267 64.5025 90.008 68.9824C89.7075 70.304 88.7152 71.3492 87.3983 71.7584C72.3326 76.4396 41.9628 82.0109 23.5297 72.0273C22.4766 71.4569 21.7908 70.4203 21.6163 69.2535Z" fill="black"/>
<path opacity="0.4" d="M85.8184 37.5828C85.54 34.5662 82.8032 33.6978 81.4695 33.6407C75.845 32.7837 63.9 31.2411 61.1168 31.9267C57.6377 32.7837 59.0293 38.2683 64.5958 39.9823C70.1624 41.6962 71.9019 36.8972 76.0768 50.0946C80.2517 63.2921 81.4695 60.8925 84.7746 60.5497C88.0798 60.207 86.1663 41.3535 85.8184 37.5828Z" fill="white"/>
<path opacity="0.4" d="M30.2048 60.1316C28.2434 60.1316 29.7557 55.9739 29.2241 54.609C27.1537 52.7682 23.0455 51.2955 23.1762 60.1316C23.3397 71.1767 26.9357 70.3646 37.5602 70.3646C48.1846 70.3646 43.96 65.0535 42.9541 63.3802C41.6265 61.1716 32.6566 60.1316 30.2048 60.1316Z" fill="white"/>
</svg>
