<svg width="234" height="40" viewBox="0 0 234 40" fill="none" xmlns="http://www.w3.org/2000/svg">
<circle cx="12" cy="12" r="12" fill="#0090FF"/>
<path fill-rule="evenodd" clip-rule="evenodd" d="M13.0667 10.7645L12.7467 12.4526L15.7867 12.8746L15.5734 13.6658L12.5867 13.2438C12.3734 13.9296 12.2667 14.6681 12 15.3011C11.7334 16.0397 11.4667 16.7782 11.1467 17.4639C10.72 18.3607 9.97338 18.9937 8.96005 19.152C8.37338 19.2575 7.73338 19.2047 7.25338 18.8355C7.09338 18.73 6.93338 18.519 6.93338 18.3607C6.93338 18.1497 7.04005 17.886 7.20005 17.7804C7.30671 17.7277 7.57338 17.7804 7.73338 17.8332C7.89338 17.9915 8.05338 18.2025 8.16005 18.4135C8.48005 18.8355 8.90671 18.8882 9.33338 18.5717C9.81338 18.1497 10.08 17.5694 10.24 16.9892C10.56 15.7231 10.88 14.5099 11.1467 13.2438V13.0328L8.32005 12.6108L8.42671 11.8195L11.36 12.2416L11.7334 10.6063L8.69338 10.1315L8.80005 9.28748L11.9467 9.70949C12.0534 9.39298 12.1067 9.12922 12.2134 8.86547C12.48 7.91594 12.7467 6.96642 13.3867 6.12239C14.0267 5.27837 14.7734 4.75086 15.8934 4.80361C16.3734 4.80361 16.8534 4.96186 17.1734 5.33112C17.2267 5.38387 17.3334 5.48938 17.3334 5.59488C17.3334 5.80589 17.3334 6.06964 17.1734 6.2279C16.96 6.38615 16.6934 6.3334 16.48 6.12239C16.32 5.96414 16.2134 5.80589 16.0534 5.64763C15.7334 5.22562 15.2534 5.17287 14.88 5.54213C14.6134 5.80589 14.3467 6.17515 14.1867 6.54441C13.8134 7.65218 13.5467 8.81272 13.1734 9.97325L16.1067 10.3953L15.8934 11.1865L13.0667 10.7645Z" fill="white"/>
<circle cx="38" cy="20" r="20" fill="#FFE896"/>
<path d="M47.4079 30.301C47.5085 29.54 47.1921 29.2588 46.8635 29.1869C46.6609 29.1426 46.4592 29.0011 46.4592 28.8044C46.4592 28.6389 46.3192 28.5038 46.1443 28.5004L29.0903 28.1712C28.8688 28.167 28.6512 28.227 28.4668 28.3433L28.2079 28.5065C25.5877 30.6002 34.7133 32.7793 37.7402 32.8648C40.767 32.9502 47.2272 31.6683 47.4079 30.301Z" fill="white"/>
<path fill-rule="evenodd" clip-rule="evenodd" d="M29.3412 27.724C29.0687 27.7182 28.8009 27.7988 28.5741 27.9547L28.3066 28.1386L28.2951 28.1487C27.9367 28.4609 27.7345 28.8152 27.741 29.206C27.7473 29.5877 27.9523 29.9284 28.2386 30.2206C28.8081 30.8018 29.8296 31.3241 30.9813 31.7642C33.298 32.6494 36.3172 33.2649 37.8415 33.3118C39.3633 33.3587 41.7235 33.0324 43.723 32.5125C44.7233 32.2523 45.6476 31.9402 46.3385 31.5946C46.6833 31.4222 46.9814 31.2358 47.2032 31.0353C47.4209 30.8384 47.5958 30.5998 47.6298 30.3192C47.6836 29.8749 47.6314 29.5281 47.486 29.2711C47.3369 29.0077 47.11 28.8738 46.8893 28.8212C46.8279 28.8065 46.7716 28.7763 46.7355 28.7422C46.7011 28.7098 46.6981 28.6881 46.6981 28.6787C46.6981 28.3512 46.4441 28.0839 46.1267 28.0773L29.3412 27.724ZM28.87 28.4126C29.0062 28.3191 29.1668 28.2707 29.3303 28.2742L46.1158 28.6275C46.1429 28.6281 46.1645 28.6508 46.1645 28.6787C46.1645 28.8803 46.2607 29.0402 46.3754 29.1484C46.4884 29.2549 46.6311 29.3244 46.7691 29.3573C46.8718 29.3818 46.9623 29.4374 47.0251 29.5484C47.0915 29.6658 47.1455 29.8784 47.1003 30.2509C47.0899 30.3372 47.0271 30.4626 46.8514 30.6215C46.6797 30.7767 46.4286 30.938 46.1057 31.0994C45.4613 31.4217 44.5764 31.723 43.5925 31.9788C41.6234 32.4908 39.3147 32.8066 37.8574 32.7617C36.4025 32.7169 33.4411 32.1171 31.1667 31.2481C30.0229 30.8111 29.0962 30.3216 28.6139 29.8294C28.3743 29.5848 28.2774 29.3734 28.2745 29.1967C28.2718 29.0312 28.3509 28.8242 28.6282 28.5789L28.87 28.4126Z" fill="black"/>
<path d="M49.6639 16.9858C49.6639 17.6036 50.1647 18.1043 50.7825 18.1043C51.4002 18.1043 51.901 17.6036 51.901 16.9858C51.901 16.3681 51.4002 15.8673 50.7825 15.8673C50.1647 15.8673 49.6639 16.3681 49.6639 16.9858Z" fill="white"/>
<path fill-rule="evenodd" clip-rule="evenodd" d="M50.7823 15.9717C51.326 15.9717 51.7666 16.3757 51.7666 16.874C51.7666 17.3723 51.326 17.7763 50.7823 17.7763C50.2387 17.7763 49.7981 17.3723 49.7981 16.874C49.7981 16.3757 50.2387 15.9717 50.7823 15.9717ZM52.1246 16.874C52.1246 16.1945 51.5236 15.6436 50.7823 15.6436C50.0411 15.6436 49.4401 16.1945 49.4401 16.874C49.4401 17.5535 50.0411 18.1044 50.7823 18.1044C51.5236 18.1044 52.1246 17.5535 52.1246 16.874Z" fill="black"/>
<path d="M26.175 16.9858C26.175 17.6036 25.6742 18.1043 25.0564 18.1043C24.4387 18.1043 23.9379 17.6036 23.9379 16.9858C23.9379 16.3681 24.4387 15.8673 25.0564 15.8673C25.6742 15.8673 26.175 16.3681 26.175 16.9858Z" fill="white"/>
<path fill-rule="evenodd" clip-rule="evenodd" d="M25.0564 15.9717C24.5128 15.9717 24.0721 16.3757 24.0721 16.874C24.0721 17.3723 24.5128 17.7763 25.0564 17.7763C25.6 17.7763 26.0407 17.3723 26.0407 16.874C26.0407 16.3757 25.6 15.9717 25.0564 15.9717ZM23.7141 16.874C23.7141 16.1945 24.3151 15.6436 25.0564 15.6436C25.7977 15.6436 26.3986 16.1945 26.3986 16.874C26.3986 17.5535 25.7977 18.1044 25.0564 18.1044C24.3151 18.1044 23.7141 17.5535 23.7141 16.874Z" fill="black"/>
<path d="M50.7721 18.1985L50.2791 15.8411C50.2278 15.5959 50.0082 15.4199 49.7534 15.4199C49.4049 15.4199 49.1488 15.7411 49.2322 16.0735L49.8186 18.4102C49.8725 18.6247 50.0684 18.7755 50.2933 18.7755C50.6028 18.7755 50.8344 18.4964 50.7721 18.1985Z" fill="white"/>
<path fill-rule="evenodd" clip-rule="evenodd" d="M50.3146 15.966C50.2508 15.6481 49.9776 15.4199 49.6606 15.4199C49.2272 15.4199 48.9086 15.8363 49.0124 16.2673L49.5533 18.5136C49.6219 18.7988 49.8718 18.9992 50.1586 18.9992C50.5534 18.9992 50.8488 18.6282 50.7693 18.2322L50.3146 15.966ZM49.6606 15.7734C49.8137 15.7734 49.9457 15.8836 49.9765 16.0372L50.4312 18.3033C50.4667 18.4801 50.3348 18.6457 50.1586 18.6457C50.0306 18.6457 49.9191 18.5562 49.8884 18.4289L49.3476 16.1827C49.2975 15.9745 49.4513 15.7734 49.6606 15.7734Z" fill="black"/>
<path d="M25.0666 18.1985L25.5596 15.8411C25.6109 15.5959 25.8305 15.4199 26.0853 15.4199C26.4338 15.4199 26.6899 15.7411 26.6065 16.0735L26.0201 18.4102C25.9662 18.6247 25.7703 18.7755 25.5454 18.7755C25.2359 18.7755 25.0043 18.4964 25.0666 18.1985Z" fill="white"/>
<path fill-rule="evenodd" clip-rule="evenodd" d="M25.5241 15.966C25.5879 15.6481 25.8611 15.4199 26.1781 15.4199C26.6115 15.4199 26.9301 15.8363 26.8263 16.2673L26.2854 18.5136C26.2168 18.7988 25.9669 18.9992 25.6801 18.9992C25.2853 18.9992 24.9899 18.6282 25.0694 18.2322L25.5241 15.966ZM26.1781 15.7734C26.025 15.7734 25.893 15.8836 25.8622 16.0372L25.4075 18.3033C25.372 18.4801 25.5039 18.6457 25.6801 18.6457C25.8081 18.6457 25.9196 18.5562 25.9503 18.4289L26.4911 16.1827C26.5412 15.9745 26.3874 15.7734 26.1781 15.7734Z" fill="black"/>
<path d="M50.0914 19.7809C50.3789 23.9039 47.4857 27.7431 46.0031 29.1473C38.77 33.1807 30.7283 29.8644 28.8414 28.4751C26.9545 27.0858 25.6516 23.8591 26.011 18.4812C26.3704 13.1034 29.9645 7.14289 38.0961 7.14288C46.2278 7.14288 49.732 14.6271 50.0914 19.7809Z" fill="white"/>
<path fill-rule="evenodd" clip-rule="evenodd" d="M46.9857 11.9441C48.8789 14.4021 49.8264 17.4973 50.0024 20.0207C50.141 22.0081 49.513 23.9406 48.6575 25.5589C47.8118 27.1585 46.7544 28.4307 46.0366 29.1166C42.5091 31.0731 38.7819 31.2494 35.6928 30.7605C32.588 30.2691 30.1575 29.1106 29.2586 28.4487C27.4903 27.1467 26.1912 24.0518 26.5472 18.7251C26.723 16.0949 27.6897 13.3314 29.5948 11.2294C31.4943 9.13374 34.3413 7.67869 38.3195 7.67869C42.2752 7.67869 45.0988 9.49437 46.9857 11.9441ZM47.4116 11.6177C45.4381 9.05548 42.4653 7.14288 38.3195 7.14288C34.1963 7.14288 31.2022 8.65706 29.1964 10.8701C27.1963 13.0769 26.1936 15.9616 26.0113 18.6894C25.6511 24.0787 26.9481 27.4134 28.9396 28.8798C29.9206 29.6021 32.436 30.7876 35.6087 31.2897C38.7884 31.7929 42.6582 31.6144 46.3282 29.5678L46.3576 29.5514L46.3821 29.5283C47.141 28.8094 48.249 27.4802 49.1326 25.8088C50.016 24.1378 50.6861 22.104 50.5382 19.9835C50.3561 17.3721 49.3789 14.1717 47.4116 11.6177Z" fill="black"/>
<path fill-rule="evenodd" clip-rule="evenodd" d="M38.0424 13.1197C42.2743 12.9732 45.3873 13.8529 46.3989 14.3014L46.5319 13.9618C45.4688 13.4904 42.3057 12.604 38.0312 12.7519L38.0424 13.1197Z" fill="black"/>
<path fill-rule="evenodd" clip-rule="evenodd" d="M34.4519 13.1829L36.9127 13.1829L36.9127 12.7355L34.4519 12.7355L34.4519 13.1829Z" fill="black"/>
<path fill-rule="evenodd" clip-rule="evenodd" d="M32.0385 13.6303L33.5573 13.4054L33.5102 12.9592L31.9914 13.184L32.0385 13.6303Z" fill="black"/>
<path fill-rule="evenodd" clip-rule="evenodd" d="M30.0696 14.0777L31.3201 13.736L31.2284 13.4066L29.9779 13.7483L30.0696 14.0777Z" fill="black"/>
<path d="M28.6357 18.8393C28.6357 20.7813 28.9788 23.5703 29.2042 25.0951C29.2493 25.4002 29.4264 25.6712 29.6985 25.8203C34.4601 28.4304 42.3053 26.9739 46.1971 25.75C46.5373 25.643 46.7936 25.3697 46.8712 25.0242C47.1344 23.853 47.4781 21.7302 47.4204 19.5593C47.3348 16.3403 47.2492 13.8414 38.0494 14.0955C28.8496 14.3496 28.6357 16.1285 28.6357 18.8393Z" fill="black"/>
<path fill-rule="evenodd" clip-rule="evenodd" d="M28.1883 18.9567C28.1883 20.9205 28.5342 23.7229 28.7593 25.2451C28.8192 25.6504 29.0567 26.0212 29.4338 26.2278C31.8975 27.5775 35.1236 27.8616 38.1843 27.6697C41.2541 27.4773 44.2101 26.8025 46.1736 26.1854C46.6325 26.0412 46.9821 25.6706 47.0878 25.2002C47.3545 24.014 47.7026 21.8673 47.6441 19.6652C47.6436 19.6478 47.6431 19.6305 47.6427 19.6132C47.6015 18.0602 47.5597 16.481 46.2531 15.3814C45.6 14.8318 44.6607 14.4259 43.3256 14.1711C41.9901 13.9162 40.2353 13.8082 37.9276 13.8719C35.6241 13.9355 33.8691 14.0947 32.5325 14.3437C31.1989 14.5921 30.257 14.9342 29.5986 15.38C28.9272 15.8346 28.5655 16.3872 28.3797 17.0128C28.1996 17.6193 28.1883 18.2864 28.1883 18.9567ZM29.1142 25.1935C28.8894 23.6734 28.5471 20.8929 28.5471 18.9567C28.5471 16.2542 28.7605 14.4807 37.9376 14.2274C47.1147 13.974 47.2001 16.4654 47.2854 19.6745C47.343 21.8389 47.0002 23.9552 46.7377 25.1229C46.6602 25.4673 46.4045 25.7398 46.0652 25.8464C42.183 27.0665 34.3572 28.5187 29.6073 25.9165C29.3359 25.7678 29.1592 25.4976 29.1142 25.1935Z" fill="black"/>
<mask id="mask0_581_2140" style="mask-type:alpha" maskUnits="userSpaceOnUse" x="28" y="14" width="20" height="14">
<path d="M28.6357 18.8393C28.6357 20.7813 28.9788 23.5703 29.2042 25.0951C29.2493 25.4002 29.4264 25.6712 29.6985 25.8203C34.4601 28.4304 42.3053 26.9739 46.1971 25.75C46.5373 25.643 46.7936 25.3697 46.8712 25.0242C47.1344 23.853 47.4781 21.7302 47.4204 19.5593C47.3348 16.3403 47.2492 13.8414 38.0494 14.0955C28.8496 14.3496 28.6357 16.1285 28.6357 18.8393Z" fill="black"/>
</mask>
<g mask="url(#mask0_581_2140)">
<path fill-rule="evenodd" clip-rule="evenodd" d="M47.8718 28.6442C47.3577 25.6113 46.3924 19.8682 46.3924 19.6711C46.3924 19.6373 46.3978 19.4598 46.4064 19.1764C46.4621 17.3531 46.6514 11.1467 46.3924 10.613C46.0931 9.9964 45.2036 9.484 44.4305 10.118C44.007 10.4653 43.2541 11.91 42.6066 13.1525C42.1265 14.0737 41.7043 14.8838 41.5171 15.0534C41.4856 15.082 41.4437 15.0721 41.4056 15.0529C41.0946 14.8966 40.0679 14.6377 37.9422 14.6341C37.9422 14.6341 37.9422 14.6341 37.9422 14.634C37.9422 14.634 37.9422 14.634 37.9422 14.634C37.9346 14.634 37.9269 14.634 37.9194 14.634C37.9118 14.634 37.9042 14.634 37.8966 14.634C37.8966 14.634 37.8965 14.634 37.8965 14.634C37.8965 14.6341 37.8965 14.6341 37.8965 14.6341C35.7709 14.6377 34.7442 14.8966 34.4331 15.0529C34.395 15.0721 34.3532 15.082 34.3216 15.0534C34.1344 14.8838 33.7122 14.0737 33.2322 13.1525C32.5846 11.91 31.8317 10.4653 31.4082 10.118C30.6351 9.484 29.7456 9.9964 29.4463 10.613C29.1873 11.1467 29.3767 17.3531 29.4323 19.1764C29.4409 19.4598 29.4463 19.6373 29.4463 19.6711C29.4463 19.8682 28.4811 25.6113 27.967 28.6442C27.9492 28.7487 28.0312 28.8422 28.1385 28.8422L37.8965 28.8422L37.9422 28.8422L47.7002 28.8422C47.8076 28.8422 47.8895 28.7487 47.8718 28.6442Z" fill="#FFAD06"/>
<path fill-rule="evenodd" clip-rule="evenodd" d="M44.0713 28.6706L44.0713 26.8483C44.0713 26.4786 44.0108 26.1112 43.8921 25.7605L43.7718 25.4054C43.6222 24.9632 43.3828 24.5558 43.0684 24.208L40.0187 20.8347C39.8761 20.6769 39.7106 20.5409 39.5277 20.4309C39.1871 20.2261 38.796 20.1177 38.3972 20.1177L37.9099 20.1177L37.7053 20.1177L37.2181 20.1177C36.8192 20.1177 36.4281 20.2261 36.0875 20.4309C35.9046 20.5409 35.7392 20.6769 35.5966 20.8347L32.5469 24.208C32.2324 24.5558 31.9931 24.9632 31.8434 25.4054L31.7231 25.7605C31.6044 26.1112 31.5439 26.4786 31.5439 26.8483L31.5439 28.6706C31.5439 28.7654 31.6217 28.8422 31.7177 28.8422L37.7361 28.8422C37.7616 28.8422 37.7858 28.8368 37.8076 28.8271C37.8294 28.8368 37.8536 28.8422 37.8791 28.8422L43.8975 28.8422C43.9935 28.8422 44.0713 28.7654 44.0713 28.6706Z" fill="white"/>
<path fill-rule="evenodd" clip-rule="evenodd" d="M39.3735 25.4866L36.4654 25.4866C36.4654 24.6217 37.1235 23.9207 37.9195 23.9207C38.7154 23.9207 39.3735 24.6217 39.3735 25.4866Z" fill="black"/>
<path fill-rule="evenodd" clip-rule="evenodd" d="M41.0795 17.657C40.8786 17.657 40.7157 17.7933 40.7157 17.9615L40.7157 18.6947C40.7157 18.8629 40.8786 18.9992 41.0795 18.9992L43.0861 18.9992C43.1354 18.9992 43.1764 18.967 43.1764 18.9258C43.1764 18.225 42.4977 17.657 41.6604 17.657L41.0795 17.657Z" fill="black"/>
<path fill-rule="evenodd" clip-rule="evenodd" d="M37.812 23.2496C38.3704 23.2458 39.2452 22.8853 39.6187 22.074C40.0874 21.056 39.8408 20.1204 37.812 20.1177L37.812 20.1177C37.8105 20.1177 37.8091 20.1177 37.8076 20.1177C37.8061 20.1177 37.8046 20.1177 37.8032 20.1177L37.8032 20.1177C35.7744 20.1204 35.5278 21.056 35.9965 22.074C36.37 22.8853 37.2448 23.2458 37.8032 23.2496L37.8032 23.2496C37.8046 23.2496 37.8061 23.2496 37.8076 23.2496C37.8091 23.2496 37.8105 23.2496 37.812 23.2496L37.812 23.2496Z" fill="black"/>
<path opacity="0.6" d="M36.9128 20.677C36.9128 20.8623 37.3635 21.0125 37.9195 21.0125C38.4754 21.0125 38.9261 20.8623 38.9261 20.677C38.9261 20.4917 38.4754 20.3414 37.9195 20.3414C37.3635 20.3414 36.9128 20.4917 36.9128 20.677Z" fill="white"/>
<path fill-rule="evenodd" clip-rule="evenodd" d="M34.7594 17.6569C34.9603 17.6569 35.1232 17.7932 35.1232 17.9614L35.1232 18.6947C35.1232 18.8628 34.9603 18.9991 34.7594 18.9991L32.7528 18.9991C32.7035 18.9991 32.6624 18.9669 32.6624 18.9256C32.6624 18.2249 33.3411 17.6569 34.1784 17.6569L34.7594 17.6569Z" fill="black"/>
</g>
<path opacity="0.3" d="M28.8595 19.063C28.8595 21.005 29.1986 23.794 29.4212 25.3188C29.4658 25.6239 29.6408 25.8949 29.9096 26.044C34.6146 28.6541 42.3664 27.1975 46.2118 25.9737C46.548 25.8667 46.8013 25.5934 46.878 25.2479C47.138 24.0767 47.4776 21.9539 47.4206 19.783C47.336 16.564 47.2514 14.0651 38.1611 14.3192C29.0709 14.5733 28.8595 16.3522 28.8595 19.063Z" fill="black"/>
<path opacity="0.3" fill-rule="evenodd" clip-rule="evenodd" d="M28.412 18.9567C28.412 20.9205 28.7618 23.7229 28.9895 25.2451C29.0501 25.6504 29.2904 26.0212 29.6718 26.2278C32.1638 27.5775 35.4269 27.8616 38.5229 27.6697C41.6279 27.4773 44.618 26.8025 46.604 26.1854C47.0682 26.0412 47.4218 25.6706 47.5288 25.2002C47.7985 24.014 48.1506 21.8673 48.0914 19.6652C48.0909 19.6478 48.0904 19.6305 48.09 19.6132C48.0484 18.0602 48.006 16.481 46.6844 15.3814C46.0238 14.8318 45.0737 14.4259 43.7233 14.1711C42.3724 13.9162 40.5974 13.8082 38.2633 13.8719C35.9332 13.9355 34.1581 14.0947 32.8061 14.3437C31.4572 14.5921 30.5045 14.9342 29.8385 15.38C29.1593 15.8346 28.7935 16.3872 28.6056 17.0128C28.4234 17.6193 28.412 18.2864 28.412 18.9567ZM29.3485 25.1935C29.1212 23.6734 28.7749 20.8929 28.7749 18.9567C28.7749 16.2542 28.9908 14.4807 38.2734 14.2274C47.5559 13.974 47.6423 16.4654 47.7286 19.6745C47.7869 21.8389 47.4401 23.9552 47.1746 25.1229C47.0962 25.4673 46.8376 25.7398 46.4943 25.8464C42.5675 27.0665 34.6518 28.5187 29.8473 25.9165C29.5728 25.7678 29.394 25.4976 29.3485 25.1935Z" fill="black"/>
<path opacity="0.4" d="M46.0825 16.9387C46.01 16.1524 45.2966 15.9261 44.949 15.9112C43.483 15.6878 40.3696 15.2858 39.6442 15.4645C38.7374 15.6878 39.1001 17.1174 40.551 17.5641C42.0019 18.0108 42.4553 16.76 43.5434 20.1998C44.6316 23.6397 44.949 23.0143 45.8105 22.9249C46.672 22.8356 46.1732 17.9215 46.0825 16.9387Z" fill="white"/>
<path opacity="0.4" d="M31.5871 22.8159C31.0758 22.8159 31.47 21.7322 31.3315 21.3765C30.7918 20.8967 29.721 20.5128 29.7551 22.8159C29.7977 25.6948 30.735 25.4831 33.5042 25.4831C36.2735 25.4831 35.1723 24.0988 34.9102 23.6627C34.5641 23.087 32.2261 22.8159 31.5871 22.8159Z" fill="white"/>
<path d="M67.66 27V13.14H76.42V15.28H70.18V18.82H75.72V20.96H70.18V27H67.66ZM78.6756 13.14H81.1956V27H78.6756V13.14ZM93.2755 24.82V27H84.5155V13.14H87.0355V24.82H93.2755ZM95.1991 27V13.14H104.099V15.28H97.7191V18.7H103.399V20.8H97.7191V24.86H104.579V27H95.1991ZM109.438 24.92C109.584 24.9333 109.778 24.9467 110.018 24.96C110.258 24.96 110.584 24.96 110.998 24.96C112.691 24.96 113.951 24.5333 114.778 23.68C115.618 22.8133 116.038 21.6067 116.038 20.06C116.038 18.4867 115.631 17.28 114.818 16.44C114.004 15.6 112.744 15.18 111.038 15.18C110.291 15.18 109.758 15.2 109.438 15.24V24.92ZM118.678 20.06C118.678 21.26 118.491 22.3067 118.118 23.2C117.744 24.08 117.211 24.82 116.518 25.42C115.838 26.0067 115.011 26.4467 114.038 26.74C113.078 27.02 112.011 27.16 110.838 27.16C110.278 27.16 109.644 27.1333 108.938 27.08C108.231 27.04 107.558 26.9467 106.918 26.8V13.34C107.558 13.1933 108.238 13.1 108.958 13.06C109.678 13.02 110.318 13 110.878 13C112.038 13 113.098 13.14 114.058 13.42C115.018 13.6867 115.838 14.1133 116.518 14.7C117.211 15.2733 117.744 16.0067 118.118 16.9C118.491 17.78 118.678 18.8333 118.678 20.06ZM123.49 20.06C123.49 20.82 123.583 21.5133 123.77 22.14C123.956 22.7533 124.223 23.28 124.57 23.72C124.93 24.1467 125.363 24.48 125.87 24.72C126.376 24.96 126.95 25.08 127.59 25.08C128.216 25.08 128.783 24.96 129.29 24.72C129.796 24.48 130.223 24.1467 130.57 23.72C130.93 23.28 131.203 22.7533 131.39 22.14C131.576 21.5133 131.67 20.82 131.67 20.06C131.67 19.3 131.576 18.6133 131.39 18C131.203 17.3733 130.93 16.8467 130.57 16.42C130.223 15.98 129.796 15.64 129.29 15.4C128.783 15.16 128.216 15.04 127.59 15.04C126.95 15.04 126.376 15.16 125.87 15.4C125.363 15.64 124.93 15.98 124.57 16.42C124.223 16.86 123.956 17.3867 123.77 18C123.583 18.6133 123.49 19.3 123.49 20.06ZM134.31 20.06C134.31 21.2467 134.13 22.2933 133.77 23.2C133.423 24.1067 132.943 24.8667 132.33 25.48C131.73 26.08 131.023 26.5333 130.21 26.84C129.396 27.1467 128.53 27.3 127.61 27.3C126.69 27.3 125.816 27.1467 124.99 26.84C124.176 26.5333 123.463 26.08 122.85 25.48C122.25 24.8667 121.77 24.1067 121.41 23.2C121.05 22.2933 120.87 21.2467 120.87 20.06C120.87 18.8733 121.05 17.8333 121.41 16.94C121.77 16.0333 122.256 15.2733 122.87 14.66C123.496 14.0467 124.216 13.5867 125.03 13.28C125.843 12.9733 126.703 12.82 127.61 12.82C128.516 12.82 129.376 12.9733 130.19 13.28C131.003 13.5867 131.71 14.0467 132.31 14.66C132.923 15.2733 133.41 16.0333 133.77 16.94C134.13 17.8333 134.31 18.8733 134.31 20.06ZM143.554 15.04C142.127 15.04 141.034 15.4867 140.274 16.38C139.527 17.26 139.154 18.4867 139.154 20.06C139.154 20.8067 139.241 21.4933 139.414 22.12C139.601 22.7333 139.867 23.26 140.214 23.7C140.574 24.14 141.014 24.4867 141.534 24.74C142.067 24.98 142.687 25.1 143.394 25.1C143.834 25.1 144.214 25.0867 144.534 25.06C144.854 25.02 145.107 24.9733 145.294 24.92V19.94H147.814V26.6C147.467 26.7333 146.881 26.88 146.054 27.04C145.227 27.2 144.274 27.28 143.194 27.28C142.194 27.28 141.281 27.12 140.454 26.8C139.627 26.48 138.921 26.0133 138.334 25.4C137.761 24.7867 137.314 24.0333 136.994 23.14C136.674 22.2467 136.514 21.22 136.514 20.06C136.514 18.9 136.687 17.8733 137.034 16.98C137.394 16.0867 137.881 15.3333 138.494 14.72C139.107 14.0933 139.827 13.62 140.654 13.3C141.481 12.98 142.361 12.82 143.294 12.82C143.934 12.82 144.501 12.8667 144.994 12.96C145.501 13.04 145.934 13.1333 146.294 13.24C146.654 13.3467 146.947 13.46 147.174 13.58C147.414 13.7 147.581 13.7867 147.674 13.84L146.914 15.9C146.514 15.66 146.014 15.46 145.414 15.3C144.827 15.1267 144.207 15.04 143.554 15.04ZM150.726 27V13.14H159.626V15.28H153.246V18.7H158.926V20.8H153.246V24.86H160.106V27H150.726ZM161.245 20.18H166.625V22.4H161.245V20.18ZM168.754 27V13.14H177.514V15.28H171.274V18.82H176.814V20.96H171.274V27H168.754ZM179.769 13.14H182.289V27H179.769V13.14ZM194.369 24.82V27H185.609V13.14H188.129V24.82H194.369ZM196.293 27V13.14H205.193V15.28H198.813V18.7H204.493V20.8H198.813V24.86H205.673V27H196.293Z" fill="black"/>
<path d="M221.08 25.32V27H212.74V13.14H214.68V25.32H221.08ZM226.791 13C228.737 13 230.231 13.3733 231.271 14.12C232.324 14.8533 232.851 15.9533 232.851 17.42C232.851 18.22 232.704 18.9067 232.411 19.48C232.131 20.04 231.717 20.5 231.171 20.86C230.637 21.2067 229.984 21.46 229.211 21.62C228.437 21.78 227.564 21.86 226.591 21.86H225.051V27H223.111V13.34C223.657 13.2067 224.264 13.12 224.931 13.08C225.611 13.0267 226.231 13 226.791 13ZM226.951 14.7C226.124 14.7 225.491 14.72 225.051 14.76V20.2H226.511C227.177 20.2 227.777 20.16 228.311 20.08C228.844 19.9867 229.291 19.84 229.651 19.64C230.024 19.4267 230.311 19.14 230.511 18.78C230.711 18.42 230.811 17.96 230.811 17.4C230.811 16.8667 230.704 16.4267 230.491 16.08C230.291 15.7333 230.011 15.46 229.651 15.26C229.304 15.0467 228.897 14.9 228.431 14.82C227.964 14.74 227.471 14.7 226.951 14.7Z" fill="black" fill-opacity="0.4"/>
</svg>
