<svg xmlns="http://www.w3.org/2000/svg" xmlns:xlink="http://www.w3.org/1999/xlink" width="90px" height="90px" viewBox="0 0 90 90" version="1.1">
    <title/>
    <defs>
        <linearGradient x1="41.4214128%" y1="0%" x2="50%" y2="100%" id="linearGradient-1">
            <stop stop-color="#6E788E" offset="0%"/>
            <stop stop-color="#09090C" offset="100%"/>
        </linearGradient>
    </defs>
    <g id="页面-1" stroke="none" strokeWidth="1" fill="none" fillRule="evenodd">
        <g id="FilaDoge-切图" transform="translate(-303.000000, -3913.000000)">
            <g id="编组-3" transform="translate(303.000000, 3913.000000)">
                <circle id="椭圆形" fill="#FFFFFF" cx="45" cy="45" r="45"/>
                <g id="编组" transform="translate(14.727273, 12.272727)">
                    <path d="M30.2630239,25.6871149 C27.5316605,25.1808994 25.3758918,25.4699237 23.7957176,26.5541878 C21.4254564,28.180584 20.7391008,30.9547431 21.0031611,33.8719396 C21.1792013,35.8167373 22.5855626,37.758375 25.222245,39.6968528 C26.4485372,41.0438171 26.9835976,42.419519 26.8274264,43.8239586 C26.6712551,45.2283982 25.7672319,46.4938964 24.1153567,47.6204533 C27.2745768,47.3513424 29.098469,46.7247804 29.5870332,45.7407671 C30.0755975,44.7567538 29.6332913,42.6006745 28.2601148,39.2725292 L30.2630239,25.6871149 Z" id="路径-37" fill="#D5D5D5"/>
                    <path d="M37.1951095,31.9033633 C37.1951095,35.117158 35.5143086,36.888781 33.4186331,39.2812387 C32.9705671,39.7927581 32.4032351,40.628295 31.7166368,41.7878494 C31.5540086,42.0624791 31.4682088,42.3757802 31.4682088,42.69495 L31.4682088,44.6438821 C31.4681945,45.1828426 31.7123396,45.6927924 32.132176,46.0307507 C33.628739,47.2354486 35.5290898,47.7192059 37.8332283,47.4820226 C41.8227699,47.0713472 45.9799368,43.2713477 47.2999005,38.6538846 C48.1798763,35.5755759 46.9301528,31.8513491 43.5507301,27.4812044 C38.0211199,21.3325052 34.8912458,16.524341 34.1611078,13.0567117 C33.0659008,7.8552677 33.64578,1.85835398 38.3739168,0.293883902 C41.526008,-0.74909615 45.5211649,1.16103656 50.3593875,6.02428202 C56.076411,12.0713679 59.426245,17.4367106 60.4088894,22.1203102 C60.9319423,24.6133483 61.2289718,28.620805 59.1297388,32.9663789 C55.3133181,40.8666641 47.2668226,49.8900626 44.3881583,53.0023914 C39.9260767,57.8266653 32.5466803,65.9610818 30.2400422,65.9610818 C27.9334042,65.9610818 21.7015902,59.2479501 16.3842589,53.5163305 C12.9451416,49.8092619 6.37522776,42.1253714 2.67563045,35.4564133 C0.655159742,31.8142778 1.26502445e-14,27.6233877 1.26502445e-14,26.5188811 C1.26502445e-14,21.2057765 2.09383907,17.0513659 3.45859544,14.9001587 C8.155089,7.49727673 15.5398566,-0.112155896 20.4982304,0.00125218463 C27.3291834,0.157489956 27.2956017,7.03262461 26.2085628,12.4890502 C25.4838702,16.1266672 22.6300458,20.9179095 17.6470896,26.8627772 C14.7893649,30.0785522 13.2562154,33.1512618 13.0476411,36.0809058 C12.8390669,39.0105498 13.9512728,41.8504335 16.3842589,44.6005568 C18.6630505,46.521534 20.9789215,47.4820226 23.331872,47.4820226 C25.2957693,47.4820226 26.8892779,47.0035499 28.1123976,46.0466044 C28.5436886,45.7091622 28.7957,45.1920163 28.7957,44.6444041 L28.7957,42.6342811 C28.7956876,42.3480753 28.7266869,42.0660879 28.5945338,41.8122192 C28.1249724,40.9101822 27.5736644,40.0665221 26.9406097,39.2812387 C25.8518733,37.9306971 23.0395586,36.462599 23.331872,31.49074 C23.4781173,29.0033046 25.6595727,25.6871149 30.2630239,25.6871149 C34.8664751,25.6871149 37.131422,29.7847263 37.1951095,31.9033633 Z" id="路径-36" fill="url(#linearGradient-1)"/>
                    <ellipse id="椭圆形" fill="#FFFFFF" transform="translate(32.766660, 28.580089) rotate(-330.000000) translate(-32.766660, -28.580089) " cx="32.7666603" cy="28.5800892" rx="2.00290909" ry="1"/>
                </g>
            </g>
        </g>
    </g>
</svg>