<svg width="453" height="422" viewBox="0 0 453 422" fill="none" xmlns="http://www.w3.org/2000/svg">
<g filter="url(#filter0_d_433_471)">
<path d="M374.56 362.286C376.131 350.353 371.189 345.945 366.057 344.818C362.893 344.123 359.742 341.903 359.742 338.82C359.742 336.225 357.556 334.106 354.823 334.053L88.4562 328.892C84.9957 328.825 81.5967 329.766 78.7169 331.589L74.6732 334.149C33.7475 366.976 176.282 401.143 223.558 402.483C270.835 403.823 371.738 383.724 374.56 362.286Z" fill="white"/>
<path fill-rule="evenodd" clip-rule="evenodd" d="M92.3711 322.041C88.1145 321.952 83.9336 323.21 80.3912 325.647L76.2152 328.519L76.0344 328.676C70.4388 333.554 67.2814 339.088 67.382 345.193C67.4803 351.155 70.6812 356.476 75.1527 361.041C84.0464 370.12 99.9978 378.279 117.983 385.153C154.159 398.98 201.305 408.595 225.108 409.328C248.873 410.06 285.728 404.963 316.951 396.842C332.573 392.779 347.006 387.903 357.796 382.505C363.18 379.811 367.835 376.9 371.298 373.768C374.697 370.692 377.428 366.965 377.959 362.581C378.8 355.641 377.984 350.224 375.713 346.209C373.386 342.094 369.843 340.003 366.396 339.181C365.437 338.952 364.558 338.479 363.994 337.948C363.457 337.441 363.41 337.102 363.41 336.955C363.41 331.84 359.444 327.665 354.488 327.561L92.3711 322.041ZM85.0132 332.799C87.1386 331.338 89.6471 330.583 92.201 330.636L354.318 336.155C354.74 336.164 355.077 336.52 355.077 336.955C355.077 340.105 356.58 342.602 358.371 344.292C360.136 345.957 362.364 347.043 364.519 347.557C366.122 347.939 367.536 348.808 368.517 350.542C369.554 352.375 370.396 355.695 369.691 361.515C369.528 362.862 368.548 364.822 365.804 367.304C363.124 369.729 359.202 372.247 354.16 374.769C344.097 379.804 330.279 384.51 314.915 388.506C284.166 396.504 248.114 401.436 225.357 400.736C202.638 400.036 156.393 390.666 120.877 377.092C103.016 370.265 88.5453 362.619 81.0131 354.93C77.2716 351.11 75.7586 347.807 75.7131 345.046C75.6705 342.462 76.9059 339.228 81.237 335.397L85.0132 332.799Z" fill="black"/>
<path d="M409.972 153.738C409.972 163.435 417.833 171.296 427.53 171.296C437.227 171.296 445.088 163.435 445.088 153.738C445.088 144.041 437.227 136.18 427.53 136.18C417.833 136.18 409.972 144.041 409.972 153.738Z" fill="white"/>
<path fill-rule="evenodd" clip-rule="evenodd" d="M427.53 137.893C436.029 137.893 442.918 144.221 442.918 152.025C442.918 159.83 436.029 166.157 427.53 166.157C419.031 166.157 412.142 159.83 412.142 152.025C412.142 144.221 419.031 137.893 427.53 137.893ZM448.514 152.025C448.514 141.382 439.119 132.755 427.53 132.755C415.941 132.755 406.546 141.382 406.546 152.025C406.546 162.668 415.941 171.296 427.53 171.296C439.119 171.296 448.514 162.668 448.514 152.025Z" fill="black"/>
<path d="M42.5416 153.738C42.5416 163.435 34.6807 171.296 24.9838 171.296C15.2868 171.296 7.4259 163.435 7.4259 153.738C7.4259 144.041 15.2868 136.18 24.9838 136.18C34.6807 136.18 42.5416 144.041 42.5416 153.738Z" fill="white"/>
<path fill-rule="evenodd" clip-rule="evenodd" d="M24.9838 137.893C16.4852 137.893 9.59568 144.221 9.59568 152.025C9.59568 159.83 16.4852 166.157 24.9838 166.157C33.4824 166.157 40.3719 159.83 40.3719 152.025C40.3719 144.221 33.4824 137.893 24.9838 137.893ZM4 152.025C4 141.382 13.3948 132.755 24.9838 132.755C36.5728 132.755 45.9676 141.382 45.9676 152.025C45.9676 162.668 36.5728 171.296 24.9838 171.296C13.3948 171.296 4 162.668 4 152.025Z" fill="black"/>
<path d="M426.946 172.591L419.396 135.887C418.611 132.069 415.246 129.329 411.344 129.329C406.008 129.329 402.086 134.329 403.363 139.505L412.344 175.886C413.169 179.227 416.168 181.574 419.613 181.574C424.353 181.574 427.9 177.229 426.946 172.591Z" fill="white"/>
<path fill-rule="evenodd" clip-rule="evenodd" d="M419.939 137.823C418.963 132.878 414.778 129.329 409.924 129.329C403.286 129.329 398.408 135.805 399.997 142.509L408.28 177.447C409.331 181.883 413.157 185 417.55 185C423.596 185 428.12 179.23 426.903 173.07L419.939 137.823ZM409.924 134.827C412.268 134.827 414.289 136.541 414.761 138.929L421.725 174.177C422.268 176.926 420.249 179.502 417.55 179.502C415.59 179.502 413.882 178.11 413.413 176.13L405.13 141.193C404.362 137.955 406.718 134.827 409.924 134.827Z" fill="black"/>
<path d="M25.568 172.591L33.1181 135.887C33.9035 132.069 37.2677 129.329 41.1697 129.329C46.5064 129.329 50.4282 134.329 49.1506 139.505L40.1701 175.886C39.3455 179.227 36.3456 181.574 32.9013 181.574C28.1608 181.574 24.6138 177.229 25.568 172.591Z" fill="white"/>
<path fill-rule="evenodd" clip-rule="evenodd" d="M32.5745 137.823C33.5515 132.878 37.7363 129.329 42.5899 129.329C49.2282 129.329 54.1065 135.805 52.5172 142.509L44.2343 177.447C43.1827 181.883 39.3566 185 34.9637 185C28.9178 185 24.394 179.23 25.6109 173.07L32.5745 137.823ZM42.5899 134.827C40.2458 134.827 38.2247 136.541 37.7529 138.929L30.7893 174.177C30.2461 176.926 32.2653 179.502 34.9637 179.502C36.9244 179.502 38.6321 178.11 39.1015 176.13L47.3844 141.193C48.1519 137.955 45.7959 134.827 42.5899 134.827Z" fill="black"/>
<path d="M416.512 197.615C421.007 262.085 375.776 322.117 352.598 344.074C239.518 407.143 113.797 355.286 84.2978 333.563C54.7988 311.839 34.4305 261.384 40.0493 177.293C45.6682 93.2013 101.857 -6.10352e-05 228.983 -6.10352e-05C356.11 -6.10352e-05 410.894 117.027 416.512 197.615Z" fill="white"/>
<path fill-rule="evenodd" clip-rule="evenodd" d="M367.838 75.0468C397.425 113.466 412.232 161.847 414.982 201.289C417.147 232.353 407.334 262.56 393.964 287.854C380.748 312.858 364.223 332.743 353.005 343.464C297.877 374.045 239.63 376.801 191.355 369.16C142.833 361.479 104.85 343.37 90.8015 333.024C63.1678 312.674 42.8656 264.298 48.4288 181.038C51.1758 139.926 66.2836 96.7305 96.0565 63.8756C125.741 31.1184 170.233 8.37488 232.404 8.37488C294.223 8.37488 338.349 36.7553 367.838 75.0468ZM374.494 69.9441C343.652 29.8951 297.194 -6.10352e-05 232.404 -6.10352e-05C167.968 -6.10352e-05 121.176 23.6675 89.8301 58.2588C58.5723 92.7524 42.9025 137.842 40.0536 180.48C34.425 264.719 54.6932 316.842 85.8168 339.762C101.147 351.052 140.458 369.583 190.039 377.431C239.732 385.297 300.208 382.506 357.563 350.517L358.022 350.261L358.405 349.899C370.265 338.663 387.58 317.886 401.389 291.761C415.194 265.642 425.666 233.852 423.355 200.708C420.509 159.89 405.238 109.866 374.494 69.9441Z" fill="black"/>
<path fill-rule="evenodd" clip-rule="evenodd" d="M228.574 93.2447C294.662 91.002 343.277 104.474 359.076 111.343L361.153 106.141C344.551 98.923 295.153 85.3476 228.398 87.6128L228.574 93.2447Z" fill="black"/>
<path fill-rule="evenodd" clip-rule="evenodd" d="M171.87 94.2129H210.412V87.3611H171.87V94.2129Z" fill="black"/>
<path fill-rule="evenodd" clip-rule="evenodd" d="M134.076 101.065L158.167 97.6211L157.42 90.787L133.329 94.2306L134.076 101.065Z" fill="black"/>
<path fill-rule="evenodd" clip-rule="evenodd" d="M103.102 107.917L123.051 102.684L121.588 97.6389L101.639 102.872L103.102 107.917Z" fill="black"/>
<path d="M81.0834 182.383C81.0834 212.755 86.4484 256.372 89.9716 280.218C90.6764 284.989 93.4457 289.227 97.699 291.559C172.141 332.379 294.789 309.6 355.632 290.46C360.951 288.787 364.958 284.513 366.171 279.11C370.285 260.793 375.659 227.595 374.756 193.643C373.418 143.302 372.08 104.221 228.254 108.195C84.4282 112.169 81.0834 139.99 81.0834 182.383Z" fill="black"/>
<path fill-rule="evenodd" clip-rule="evenodd" d="M74.2315 184.527C74.2315 215.33 79.634 259.284 83.1508 283.161C84.0871 289.517 87.7982 295.334 93.6881 298.574C132.179 319.745 182.577 324.201 230.394 321.192C278.352 318.173 324.534 307.589 355.208 297.91C362.378 295.648 367.839 289.835 369.491 282.457C373.657 263.851 379.096 230.18 378.181 195.639C378.173 195.367 378.166 195.095 378.159 194.823C377.516 170.466 376.862 145.695 356.45 128.448C346.247 119.827 331.573 113.461 310.715 109.465C289.851 105.467 262.436 103.772 226.384 104.771C190.397 105.769 162.98 108.266 142.099 112.171C121.265 116.068 106.549 121.433 96.2633 128.425C85.7737 135.556 80.123 144.225 77.2207 154.037C74.4075 163.549 74.2315 174.014 74.2315 184.527ZM88.6962 282.352C85.1842 258.508 79.8362 214.896 79.8362 184.527C79.8362 142.139 83.1703 114.321 226.54 110.347C369.911 106.373 371.244 145.45 372.578 195.786C373.477 229.734 368.121 262.928 364.02 281.243C362.811 286.646 358.816 290.92 353.514 292.593C292.865 311.73 170.605 334.507 96.399 293.692C92.1593 291.36 89.3988 287.122 88.6962 282.352Z" fill="black"/>
<mask id="mask0_433_471" style="mask-type:alpha" maskUnits="userSpaceOnUse" x="81" y="107" width="294" height="208">
<path d="M81.0834 182.383C81.0834 212.755 86.4484 256.372 89.9716 280.218C90.6764 284.989 93.4457 289.227 97.699 291.559C172.141 332.379 294.789 309.6 355.632 290.46C360.951 288.787 364.958 284.513 366.171 279.11C370.285 260.793 375.659 227.595 374.756 193.643C373.418 143.302 372.08 104.221 228.254 108.195C84.4282 112.169 81.0834 139.99 81.0834 182.383Z" fill="black"/>
</mask>
<g mask="url(#mask0_433_471)">
<path fill-rule="evenodd" clip-rule="evenodd" d="M381.671 336.072C373.643 288.668 358.569 198.906 358.569 195.825C358.569 195.295 358.654 192.521 358.789 188.092C359.657 159.594 362.614 62.5888 358.569 54.2476C353.896 44.61 340.006 36.6013 327.933 46.5104C321.319 51.9389 309.563 74.5189 299.451 93.9402C291.954 108.338 285.362 121 282.438 123.651C281.946 124.097 281.293 123.942 280.697 123.642C275.84 121.199 259.807 117.153 226.614 117.096C226.613 117.096 226.613 117.096 226.613 117.096C226.613 117.095 226.613 117.095 226.613 117.095C226.494 117.095 226.375 117.095 226.257 117.096C226.138 117.095 226.02 117.095 225.901 117.095C225.901 117.095 225.901 117.095 225.901 117.096C225.901 117.096 225.9 117.096 225.9 117.096C192.707 117.153 176.674 121.199 171.817 123.642C171.221 123.942 170.568 124.097 170.076 123.651C167.152 121 160.56 108.338 153.063 93.9402C142.951 74.5189 131.195 51.9389 124.581 46.5104C112.508 36.6013 98.6182 44.61 93.945 54.2476C89.9003 62.5888 92.8568 159.594 93.7254 188.092C93.8604 192.521 93.945 195.295 93.945 195.825C93.945 198.906 78.8713 288.668 70.8433 336.072C70.5666 337.706 71.8462 339.167 73.5227 339.167H225.901H226.613H378.991C380.668 339.167 381.947 337.706 381.671 336.072Z" fill="#FFAD06"/>
<path fill-rule="evenodd" clip-rule="evenodd" d="M322.611 336.488V308.044C322.611 302.273 321.664 296.539 319.805 291.065L317.922 285.521C315.579 278.62 311.831 272.26 306.908 266.831L259.161 214.177C256.929 211.715 254.339 209.591 251.475 207.874C246.142 204.677 240.018 202.986 233.774 202.986H226.146H222.942H215.314C209.07 202.986 202.946 204.677 197.613 207.874C194.75 209.591 192.16 211.715 189.927 214.177L142.18 266.831C137.257 272.26 133.509 278.62 131.166 285.521L129.283 291.065C127.425 296.539 126.477 302.273 126.477 308.044V336.488C126.477 337.968 127.695 339.167 129.198 339.167H223.425C223.824 339.167 224.203 339.082 224.544 338.93C224.885 339.082 225.264 339.167 225.663 339.167H319.89C321.393 339.167 322.611 337.968 322.611 336.488Z" fill="white"/>
<path fill-rule="evenodd" clip-rule="evenodd" d="M248.954 286.921H203.56C203.561 273.204 213.833 262.083 226.257 262.083C238.681 262.083 248.953 273.204 248.954 286.921Z" fill="black"/>
<path fill-rule="evenodd" clip-rule="evenodd" d="M276.064 164.444C272.917 164.444 270.366 166.532 270.366 169.107V180.337C270.366 182.912 272.917 185 276.064 185H307.493C308.265 185 308.907 184.507 308.907 183.875C308.907 173.144 298.276 164.444 285.162 164.444H276.064Z" fill="black"/>
<path fill-rule="evenodd" clip-rule="evenodd" d="M224.613 251.805C233.283 251.746 246.866 246.127 252.666 233.48C259.943 217.612 256.114 203.028 224.613 202.986V202.986C224.59 202.986 224.567 202.986 224.544 202.986C224.521 202.986 224.498 202.986 224.475 202.986V202.986C192.974 203.028 189.145 217.612 196.423 233.48C202.222 246.127 215.805 251.746 224.475 251.805V251.806C224.498 251.806 224.521 251.806 224.544 251.805C224.567 251.806 224.59 251.806 224.613 251.806V251.805Z" fill="black"/>
<path opacity="0.6" d="M210.412 211.551C210.412 214.389 217.506 216.69 226.257 216.69C235.008 216.69 242.102 214.389 242.102 211.551C242.102 208.713 235.008 206.412 226.257 206.412C217.506 206.412 210.412 208.713 210.412 211.551Z" fill="white"/>
<path fill-rule="evenodd" clip-rule="evenodd" d="M176.45 164.444C179.597 164.444 182.148 166.532 182.148 169.107V180.337C182.148 182.913 179.597 185 176.45 185H145.022C144.25 185 143.607 184.506 143.607 183.874C143.607 173.143 154.237 164.444 167.351 164.444H176.45Z" fill="black"/>
</g>
<path opacity="0.3" d="M84.5093 185.809C84.5093 216.18 89.8118 259.798 93.2939 283.644C93.9905 288.415 96.7275 292.653 100.931 294.985C174.505 335.805 295.723 313.026 355.856 293.886C361.113 292.213 365.073 287.939 366.273 282.535C370.339 264.219 375.649 231.021 374.757 197.069C373.435 146.728 372.113 107.647 229.964 111.621C87.8151 115.595 84.5093 143.416 84.5093 185.809Z" fill="black"/>
<path opacity="0.3" fill-rule="evenodd" clip-rule="evenodd" d="M77.6574 184.527C77.6574 215.33 83.1208 259.284 86.6772 283.161C87.6241 289.517 91.3769 295.334 97.3333 298.574C136.258 319.745 187.224 324.201 235.579 321.192C284.078 318.173 330.78 307.589 361.8 297.91C369.051 295.648 374.573 289.835 376.244 282.457C380.456 263.851 385.957 230.18 385.031 195.639C385.024 195.367 385.017 195.095 385.009 194.823C384.359 170.466 383.698 145.695 363.056 128.448C352.738 119.827 337.898 113.461 316.806 109.465C295.706 105.467 267.983 103.772 231.525 104.771C195.132 105.769 167.406 108.266 146.289 112.171C125.22 116.068 110.339 121.433 99.9375 128.425C89.3297 135.556 83.6153 144.225 80.6804 154.037C77.8354 163.549 77.6574 174.014 77.6574 184.527ZM92.2851 282.352C88.7335 258.508 83.3252 214.896 83.3252 184.527C83.3252 142.139 86.697 114.321 231.683 110.347C376.668 106.373 378.017 145.45 379.365 195.786C380.275 229.734 374.859 262.928 370.711 281.243C369.488 286.646 365.448 290.92 360.087 292.593C298.754 311.73 175.117 334.507 100.075 293.692C95.7872 291.36 92.9956 287.122 92.2851 282.352Z" fill="black"/>
<path opacity="0.4" d="M354.188 153.101C353.051 140.794 341.871 137.251 336.422 137.018C313.445 133.522 264.647 127.229 253.277 130.026C239.064 133.522 244.749 155.898 267.489 162.89C290.23 169.883 297.336 150.304 314.392 204.146C331.447 257.988 336.422 248.198 349.924 246.8C363.427 245.401 355.61 168.484 354.188 153.101Z" fill="white"/>
<path opacity="0.4" d="M127.123 244.999C119.059 244.999 125.276 227.988 123.091 222.403C114.578 214.872 97.6879 208.846 98.2255 244.999C98.8975 290.19 113.682 286.867 157.364 286.867C201.046 286.867 183.677 265.136 179.541 258.29C174.082 249.254 137.203 244.999 127.123 244.999Z" fill="white"/>
<path d="M261.839 261.249C261.408 257.116 264.65 253.519 268.805 253.519H391.834C395.989 253.519 399.23 257.116 398.799 261.249L383.564 407.403C383.192 410.971 380.185 413.681 376.599 413.681H284.04C280.453 413.681 277.446 410.971 277.074 407.403L261.839 261.249Z" fill="#0090FF"/>
<path d="M335.701 318.481C336.364 316.353 336.95 314.228 337.528 312.131C337.572 311.973 337.615 311.815 337.659 311.658C338.329 309.227 338.997 306.837 339.773 304.504C340.419 303.006 341.496 301.498 342.572 300.422C343.27 299.725 344.024 299.462 344.72 299.53C345.42 299.597 346.142 300.008 346.749 300.817L346.77 300.845L346.795 300.87C347.113 301.188 347.379 301.507 347.661 301.845L347.666 301.852C347.943 302.184 348.235 302.535 348.588 302.887C349.092 303.392 349.687 303.734 350.316 303.839C350.954 303.945 351.596 303.8 352.154 303.382L352.183 303.36L352.208 303.335C352.645 302.898 352.842 302.337 352.935 301.808C353.027 301.288 353.027 300.748 353.027 300.31V300.293C353.027 299.912 352.842 299.582 352.681 299.358C352.521 299.133 352.333 298.944 352.221 298.832C350.76 297.137 348.598 296.434 346.488 296.431C341.567 296.201 338.291 298.571 335.544 302.233C332.799 305.894 331.657 310.005 330.543 314.015L330.54 314.026C330.311 314.603 330.14 315.175 329.974 315.757C329.945 315.856 329.917 315.955 329.889 316.055C329.782 316.433 329.673 316.817 329.547 317.219L316.74 315.483L316.24 315.415L316.177 315.916L315.729 319.502L315.669 319.982L316.147 320.058L328.392 321.991L327.043 327.966L315.177 326.24L314.676 326.167L314.609 326.668L314.161 330.03L314.096 330.517L314.582 330.59L326.033 332.319V332.733C325.105 337.182 324.023 341.476 322.914 345.885C322.69 346.774 322.465 347.668 322.24 348.568C321.582 350.978 320.501 353.329 318.597 355.03C317.78 355.638 317.018 355.851 316.347 355.762C315.683 355.673 315.018 355.276 314.41 354.48C313.936 353.545 313.241 352.622 312.545 351.926L312.462 351.843L312.35 351.806C311.987 351.685 311.508 351.565 311.053 351.504C310.825 351.474 310.592 351.457 310.376 351.465C310.169 351.473 309.932 351.506 309.727 351.609L309.699 351.623L309.673 351.64C309.229 351.936 308.898 352.422 308.68 352.92C308.46 353.424 308.33 353.996 308.33 354.521C308.33 355.004 308.562 355.498 308.839 355.898C309.12 356.303 309.494 356.681 309.882 356.943C312.051 358.622 314.896 358.835 317.429 358.375C321.87 357.672 325.133 354.86 326.985 350.924L326.987 350.921C328.341 347.988 329.467 344.833 330.585 341.704C331.158 340.325 331.556 338.841 331.92 337.358C332.001 337.03 332.079 336.704 332.157 336.378C332.404 335.352 332.648 334.335 332.938 333.341L345.061 335.072L345.501 335.135L345.615 334.706L346.511 331.345L346.657 330.799L346.098 330.721L333.843 329.001L335.002 322.819L346.402 324.54L346.844 324.607L346.959 324.174L347.856 320.813L348.001 320.27L347.445 320.189L335.701 318.481Z" fill="white" stroke="white"/>
<path fill-rule="evenodd" clip-rule="evenodd" d="M391.834 260.523L268.805 260.523L284.04 406.677H376.599L391.834 260.523ZM268.805 253.519C264.65 253.519 261.408 257.116 261.839 261.249L277.074 407.403C277.446 410.971 280.453 413.681 284.04 413.681H376.599C380.185 413.681 383.192 410.971 383.564 407.403L398.799 261.249C399.23 257.116 395.989 253.519 391.834 253.519H268.805Z" fill="black"/>
<path d="M347.689 230.881C348.227 230.562 348.839 230.394 349.463 230.394H386.774C388.707 230.394 390.273 231.973 390.273 233.922V248.278C390.273 250.226 388.707 251.806 386.774 251.806H325.26C321.695 251.806 320.413 247.059 323.486 245.237L347.689 230.881Z" fill="#0090FF"/>
<path fill-rule="evenodd" clip-rule="evenodd" d="M348.977 226.968H386.636C390.537 226.968 393.699 230.104 393.699 233.973V248.226C393.699 252.095 390.537 255.231 386.636 255.231H324.547C317.351 255.231 314.764 245.806 320.966 242.188L345.396 227.935C346.481 227.302 347.717 226.968 348.977 226.968ZM348.977 230.47C348.347 230.47 347.729 230.637 347.186 230.954L322.757 245.207C319.656 247.016 320.949 251.729 324.547 251.729H386.636C388.586 251.729 390.167 250.16 390.167 248.226V233.973C390.167 232.039 388.586 230.47 386.636 230.47H348.977Z" fill="black"/>
<path d="M262.899 250.957C263.297 249.44 264.701 248.38 266.309 248.38H392.617C394.225 248.38 395.628 249.44 396.027 250.957L398.726 261.235C399.296 263.401 397.614 265.509 395.317 265.509H263.609C261.312 265.509 259.63 263.401 260.199 261.235L262.899 250.957Z" fill="#77B6FF"/>
<path fill-rule="evenodd" clip-rule="evenodd" d="M266.466 241.528H392.46C397.271 241.528 401.471 244.71 402.663 249.259L405.356 259.537C407.059 266.037 402.028 272.361 395.153 272.361H263.773C256.898 272.361 251.867 266.037 253.57 259.537L256.263 249.259C257.455 244.71 261.655 241.528 266.466 241.528ZM266.466 248.38C264.862 248.38 263.462 249.44 263.065 250.957L260.372 261.235C259.804 263.401 261.482 265.509 263.773 265.509H395.153C397.444 265.509 399.122 263.401 398.554 261.235L395.861 250.957C395.464 249.44 394.064 248.38 392.46 248.38H266.466Z" fill="black"/>
<path d="M365.435 331.283C365.435 314.351 379.24 300.625 396.269 300.625C413.297 300.625 427.102 314.351 427.102 331.283V347.05C427.102 363.982 413.297 377.708 396.269 377.708C379.24 377.708 365.435 363.982 365.435 347.05V331.283Z" fill="#FFAD06"/>
<path fill-rule="evenodd" clip-rule="evenodd" d="M423.603 347.05V331.283C423.603 316.272 411.365 304.104 396.269 304.104C381.172 304.104 368.934 316.272 368.934 331.283V347.05C368.934 362.061 381.172 374.23 396.269 374.23C411.365 374.23 423.603 362.061 423.603 347.05ZM396.269 300.625C379.24 300.625 365.435 314.351 365.435 331.283V347.05C365.435 363.982 379.24 377.708 396.269 377.708C413.297 377.708 427.102 363.982 427.102 347.05V331.283C427.102 314.351 413.297 300.625 396.269 300.625Z" fill="black"/>
<path fill-rule="evenodd" clip-rule="evenodd" d="M391.13 331.458H369.718V328.032H391.13V331.458Z" fill="black"/>
<path fill-rule="evenodd" clip-rule="evenodd" d="M391.13 350.301H369.718V346.875H391.13V350.301Z" fill="black"/>
</g>
<defs>
<filter id="filter0_d_433_471" x="0" y="-6.10352e-05" width="452.514" height="421.681" filterUnits="userSpaceOnUse" color-interpolation-filters="sRGB">
<feFlood flood-opacity="0" result="BackgroundImageFix"/>
<feColorMatrix in="SourceAlpha" type="matrix" values="0 0 0 0 0 0 0 0 0 0 0 0 0 0 0 0 0 0 127 0" result="hardAlpha"/>
<feOffset dy="4"/>
<feGaussianBlur stdDeviation="2"/>
<feComposite in2="hardAlpha" operator="out"/>
<feColorMatrix type="matrix" values="0 0 0 0 0 0 0 0 0 0 0 0 0 0 0 0 0 0 0.25 0"/>
<feBlend mode="normal" in2="BackgroundImageFix" result="effect1_dropShadow_433_471"/>
<feBlend mode="normal" in="SourceGraphic" in2="effect1_dropShadow_433_471" result="shape"/>
</filter>
</defs>
</svg>
