<svg width="44" height="44" viewBox="0 0 44 44" fill="none" xmlns="http://www.w3.org/2000/svg">
<rect width="43.2" height="43.2" rx="21.6" fill="#FFE896"/>
<mask id="path-2-outside-1_362_664" maskUnits="userSpaceOnUse" x="6.63184" y="5.41919" width="30" height="29" fill="black">
<rect fill="white" x="6.63184" y="5.41919" width="30" height="29"/>
<path fill-rule="evenodd" clip-rule="evenodd" d="M7.63585 33.0645C8.35814 28.7478 9.69921 20.6646 9.69921 20.3861C9.69921 20.338 9.69163 20.0862 9.67952 19.6841C9.60161 17.0971 9.33641 8.29115 9.69921 7.53395C10.1184 6.65907 11.3643 5.93205 12.4472 6.83158C13.0405 7.32438 14.0951 9.37415 15.0021 11.1372C15.6639 12.4234 16.2471 13.557 16.5154 13.822C16.5659 13.872 16.6357 13.8573 16.6994 13.826C17.1524 13.6035 18.5915 13.2444 21.5353 13.2392C21.5353 13.2392 21.5354 13.2392 21.5354 13.2392V13.2392C21.5354 13.2392 21.5354 13.2392 21.5354 13.2392C21.5461 13.2392 21.5568 13.2392 21.5675 13.2392C21.5781 13.2392 21.5888 13.2392 21.5995 13.2392C21.5996 13.2392 21.5996 13.2392 21.5996 13.2392V13.2392C21.5996 13.2392 21.5996 13.2392 21.5996 13.2392C24.5435 13.2444 25.9825 13.6035 26.4355 13.826C26.4993 13.8573 26.569 13.872 26.6196 13.822C26.8879 13.557 27.4711 12.4234 28.1328 11.1372C29.0399 9.37415 30.0944 7.32438 30.6877 6.83158C31.7706 5.93205 33.0165 6.65907 33.4357 7.53395C33.7985 8.29115 33.5333 17.0971 33.4554 19.6841C33.4433 20.0862 33.4357 20.338 33.4357 20.3861C33.4357 20.6646 34.7768 28.7478 35.4991 33.0645C35.5285 33.2402 35.3928 33.3984 35.2147 33.3984H21.5996H21.5354H7.92021C7.74215 33.3984 7.60647 33.2402 7.63585 33.0645Z"/>
</mask>
<path fill-rule="evenodd" clip-rule="evenodd" d="M7.63585 33.0645C8.35814 28.7478 9.69921 20.6646 9.69921 20.3861C9.69921 20.338 9.69163 20.0862 9.67952 19.6841C9.60161 17.0971 9.33641 8.29115 9.69921 7.53395C10.1184 6.65907 11.3643 5.93205 12.4472 6.83158C13.0405 7.32438 14.0951 9.37415 15.0021 11.1372C15.6639 12.4234 16.2471 13.557 16.5154 13.822C16.5659 13.872 16.6357 13.8573 16.6994 13.826C17.1524 13.6035 18.5915 13.2444 21.5353 13.2392C21.5353 13.2392 21.5354 13.2392 21.5354 13.2392V13.2392C21.5354 13.2392 21.5354 13.2392 21.5354 13.2392C21.5461 13.2392 21.5568 13.2392 21.5675 13.2392C21.5781 13.2392 21.5888 13.2392 21.5995 13.2392C21.5996 13.2392 21.5996 13.2392 21.5996 13.2392V13.2392C21.5996 13.2392 21.5996 13.2392 21.5996 13.2392C24.5435 13.2444 25.9825 13.6035 26.4355 13.826C26.4993 13.8573 26.569 13.872 26.6196 13.822C26.8879 13.557 27.4711 12.4234 28.1328 11.1372C29.0399 9.37415 30.0944 7.32438 30.6877 6.83158C31.7706 5.93205 33.0165 6.65907 33.4357 7.53395C33.7985 8.29115 33.5333 17.0971 33.4554 19.6841C33.4433 20.0862 33.4357 20.338 33.4357 20.3861C33.4357 20.6646 34.7768 28.7478 35.4991 33.0645C35.5285 33.2402 35.3928 33.3984 35.2147 33.3984H21.5996H21.5354H7.92021C7.74215 33.3984 7.60647 33.2402 7.63585 33.0645Z" fill="#FFAD06"/>
<path d="M7.63585 33.0645L8.488 33.2071L8.488 33.2071L7.63585 33.0645ZM9.67952 19.6841L10.5431 19.6581L10.5431 19.6581L9.67952 19.6841ZM9.69921 7.53395L8.92003 7.16061L8.92003 7.16061L9.69921 7.53395ZM12.4472 6.83158L12.9993 6.16696L12.9993 6.16696L12.4472 6.83158ZM15.0021 11.1372L14.2338 11.5324L14.2338 11.5324L15.0021 11.1372ZM16.5154 13.822L15.9081 14.4367L15.9081 14.4367L16.5154 13.822ZM16.6994 13.826L17.0802 14.6015L17.0802 14.6015L16.6994 13.826ZM21.5675 13.2392L21.5667 14.1032L21.5682 14.1032L21.5675 13.2392ZM26.4355 13.826L26.0547 14.6015L26.0547 14.6015L26.4355 13.826ZM26.6196 13.822L27.2268 14.4367L27.2268 14.4367L26.6196 13.822ZM28.1328 11.1372L27.3645 10.7419L27.3645 10.7419L28.1328 11.1372ZM30.6877 6.83158L31.2398 7.4962L31.2398 7.4962L30.6877 6.83158ZM33.4357 7.53395L32.6565 7.90728L32.6565 7.90728L33.4357 7.53395ZM33.4554 19.6841L32.5918 19.6581L32.5918 19.6581L33.4554 19.6841ZM35.4991 33.0645L34.6469 33.2071L34.6469 33.2071L35.4991 33.0645ZM21.5996 13.2392L21.6011 12.3752L21.5996 13.2392ZM21.5995 13.2392L21.5995 12.3752L21.5995 13.2392ZM21.5354 13.2392L21.5354 12.3752L21.5354 13.2392ZM21.5353 13.2392L21.5368 14.1032L21.5353 13.2392ZM8.83521 20.3861C8.83521 20.3324 8.84092 20.3117 8.82744 20.4136C8.81834 20.4823 8.80437 20.5803 8.78557 20.7067C8.74811 20.9587 8.69341 21.3109 8.62503 21.7423C8.48839 22.6044 8.29848 23.774 8.08577 25.0712C7.66043 27.6651 7.14476 30.7641 6.7837 32.922L8.488 33.2071C8.84923 31.0483 9.36524 27.9473 9.791 25.3508C10.0038 24.0527 10.1944 22.8795 10.3317 22.0128C10.4004 21.5798 10.4561 21.2211 10.4948 20.9608C10.5141 20.8311 10.5296 20.7226 10.5405 20.6403C10.547 20.591 10.5632 20.4745 10.5632 20.3861H8.83521ZM8.81591 19.7101C8.82197 19.9114 8.82687 20.0741 8.83026 20.1925C8.83195 20.2518 8.83324 20.299 8.8341 20.3339C8.83506 20.373 8.83521 20.3867 8.83521 20.3861H10.5632C10.5632 20.3207 10.5548 20.0462 10.5431 19.6581L8.81591 19.7101ZM8.92003 7.16061C8.84108 7.32539 8.80577 7.5079 8.78634 7.62331C8.76296 7.76214 8.74485 7.92238 8.73017 8.09344C8.70069 8.43694 8.68105 8.87289 8.6684 9.36591C8.64305 10.3546 8.64477 11.6199 8.66016 12.933C8.69095 15.5615 8.77697 18.4172 8.81591 19.7101L10.5431 19.6581C10.5042 18.364 10.4186 15.5232 10.388 12.9127C10.3727 11.6063 10.3713 10.3664 10.3958 9.41021C10.4081 8.93076 10.4267 8.53431 10.4518 8.24119C10.4645 8.09394 10.4778 7.98483 10.4904 7.91021C10.5069 7.81218 10.512 7.83715 10.4784 7.90728L8.92003 7.16061ZM12.9993 6.16696C12.2087 5.51022 11.3023 5.42865 10.5332 5.70389C9.80856 5.96323 9.22278 6.52877 8.92003 7.16061L10.4784 7.90728C10.5948 7.66425 10.8416 7.42884 11.1155 7.33083C11.3449 7.24873 11.6029 7.25341 11.8952 7.4962L12.9993 6.16696ZM15.7704 10.7419C15.3191 9.86461 14.82 8.89438 14.3583 8.08135C14.1274 7.67477 13.8987 7.29484 13.6837 6.97857C13.481 6.68041 13.2472 6.3729 12.9993 6.16696L11.8952 7.4962C11.9439 7.53666 12.0644 7.67016 12.2546 7.95003C12.4326 8.21178 12.6355 8.54688 12.8557 8.93472C13.2963 9.71054 13.7781 10.6467 14.2338 11.5324L15.7704 10.7419ZM17.1226 13.2074C17.1334 13.2181 17.092 13.1738 16.9905 13.0122C16.9008 12.8692 16.7913 12.6792 16.6636 12.4467C16.4084 11.9819 16.1031 11.3886 15.7704 10.7419L14.2338 11.5324C14.5629 12.172 14.88 12.7886 15.1489 13.2784C15.2833 13.5232 15.4113 13.7467 15.5271 13.931C15.6311 14.0966 15.7632 14.2935 15.9081 14.4367L17.1226 13.2074ZM16.3186 13.0504C16.3373 13.0412 16.4277 12.9971 16.5658 12.9912C16.7348 12.9841 16.9511 13.038 17.1226 13.2074L15.9081 14.4367C16.3945 14.9172 16.9803 14.6506 17.0802 14.6015L16.3186 13.0504ZM21.5338 12.3752C20.0286 12.3779 18.8893 12.4709 18.0545 12.5967C17.2393 12.7196 16.6634 12.8811 16.3186 13.0504L17.0802 14.6015C17.1884 14.5484 17.5586 14.419 18.3121 14.3054C19.046 14.1948 20.0982 14.1057 21.5368 14.1032L21.5338 12.3752ZM21.5354 14.1032C21.5459 14.1032 21.5563 14.1032 21.5667 14.1032L21.5682 12.3752C21.5573 12.3752 21.5463 12.3752 21.5354 12.3752L21.5354 14.1032ZM21.5995 12.3752C21.5886 12.3752 21.5777 12.3752 21.5667 12.3752L21.5682 14.1032C21.5786 14.1032 21.5891 14.1032 21.5995 14.1032L21.5995 12.3752ZM21.5981 14.1032C23.0368 14.1057 24.0889 14.1948 24.8228 14.3054C25.5764 14.419 25.9465 14.5484 26.0547 14.6015L26.8164 13.0504C26.4715 12.8811 25.8956 12.7196 25.0804 12.5967C24.2456 12.4709 23.1063 12.3779 21.6011 12.3752L21.5981 14.1032ZM26.0547 14.6015C26.1547 14.6506 26.7404 14.9172 27.2268 14.4367L26.0124 13.2074C26.1838 13.038 26.4001 12.9841 26.5692 12.9912C26.7072 12.9971 26.7977 13.0412 26.8164 13.0504L26.0547 14.6015ZM27.2268 14.4367C27.3717 14.2935 27.5039 14.0966 27.6079 13.931C27.7236 13.7467 27.8516 13.5232 27.986 13.2784C28.2549 12.7886 28.5721 12.172 28.9011 11.5324L27.3645 10.7419C27.0318 11.3886 26.7265 11.9819 26.4713 12.4467C26.3437 12.6792 26.2342 12.8692 26.1444 13.0122C26.0429 13.1738 26.0016 13.2181 26.0123 13.2074L27.2268 14.4367ZM28.9011 11.5324C29.3568 10.6467 29.8386 9.71054 30.2792 8.93473C30.4995 8.54688 30.7024 8.21179 30.8803 7.95003C31.0706 7.67016 31.1911 7.53666 31.2398 7.4962L30.1356 6.16696C29.8877 6.3729 29.6539 6.68041 29.4512 6.97857C29.2362 7.29484 29.0075 7.67478 28.7766 8.08135C28.3149 8.89438 27.8159 9.86461 27.3645 10.7419L28.9011 11.5324ZM31.2398 7.4962C31.532 7.25341 31.79 7.24873 32.0195 7.33083C32.2933 7.42884 32.5401 7.66425 32.6565 7.90728L34.2149 7.16061C33.9122 6.52877 33.3264 5.96323 32.6017 5.70389C31.8327 5.42865 30.9263 5.51022 30.1356 6.16696L31.2398 7.4962ZM32.6565 7.90728C32.6229 7.83715 32.6281 7.81218 32.6446 7.91021C32.6571 7.98483 32.6705 8.09394 32.6831 8.2412C32.7083 8.53431 32.7268 8.93076 32.7391 9.41021C32.7636 10.3664 32.7622 11.6063 32.7469 12.9127C32.7163 15.5232 32.6308 18.364 32.5918 19.6581L34.319 19.7101C34.358 18.4172 34.444 15.5615 34.4748 12.933C34.4902 11.6199 34.4919 10.3546 34.4665 9.36591C34.4539 8.87289 34.4342 8.43694 34.4048 8.09344C34.3901 7.92238 34.372 7.76214 34.3486 7.62331C34.3292 7.5079 34.2939 7.32539 34.2149 7.16061L32.6565 7.90728ZM32.5918 19.6581C32.5801 20.0462 32.5717 20.3207 32.5717 20.3861H34.2997C34.2997 20.3867 34.2999 20.373 34.3008 20.3339C34.3017 20.299 34.303 20.2518 34.3047 20.1925C34.3081 20.0741 34.313 19.9114 34.319 19.7101L32.5918 19.6581ZM32.5717 20.3861C32.5717 20.4745 32.5879 20.591 32.5944 20.6403C32.6053 20.7226 32.6209 20.8311 32.6402 20.9608C32.6789 21.2211 32.7346 21.5798 32.8032 22.0128C32.9406 22.8795 33.1311 24.0527 33.3439 25.3508C33.7697 27.9473 34.2857 31.0483 34.6469 33.2071L36.3512 32.922C35.9902 30.7641 35.4745 27.6651 35.0492 25.0712C34.8365 23.774 34.6465 22.6044 34.5099 21.7423C34.4415 21.3109 34.3868 20.9587 34.3494 20.7067C34.3306 20.5803 34.3166 20.4823 34.3075 20.4136C34.294 20.3117 34.2997 20.3324 34.2997 20.3861H32.5717ZM34.6469 33.2071C34.587 32.8488 34.866 32.5344 35.2147 32.5344V34.2624C35.9196 34.2624 36.47 33.6315 36.3512 32.922L34.6469 33.2071ZM35.2147 32.5344H21.5996V34.2624H35.2147V32.5344ZM21.5996 32.5344H21.5354V34.2624H21.5996V32.5344ZM7.92021 34.2624H21.5354V32.5344H7.92021V34.2624ZM6.7837 32.922C6.66497 33.6315 7.21532 34.2624 7.92021 34.2624V32.5344C8.26898 32.5344 8.54796 32.8488 8.488 33.2071L6.7837 32.922ZM20.7356 13.2392C20.7356 13.7336 21.1395 14.1024 21.5981 14.1032L21.6011 12.3752C22.0596 12.376 22.4636 12.7448 22.4636 13.2392H20.7356ZM21.5995 14.1032C21.1225 14.1032 20.7356 13.7164 20.7356 13.2392H22.4636C22.4636 12.7619 22.0767 12.3752 21.5995 12.3752L21.5995 14.1032ZM22.3994 13.2392C22.3994 13.7164 22.0125 14.1032 21.5354 14.1032L21.5354 12.3752C21.0583 12.3752 20.6714 12.7619 20.6714 13.2392H22.3994ZM21.5368 14.1032C21.9954 14.1024 22.3994 13.7336 22.3994 13.2392H20.6714C20.6714 12.7448 21.0753 12.376 21.5338 12.3752L21.5368 14.1032Z" fill="#FF5C00" mask="url(#path-2-outside-1_362_664)"/>
<path fill-rule="evenodd" clip-rule="evenodd" d="M12.9769 33.1104V30.7176C12.9769 30.097 13.0772 29.4804 13.2739 28.8918L13.3376 28.7013C13.5856 27.9592 13.9822 27.2754 14.5032 26.6916L18.6484 22.0473C18.848 21.8237 19.0795 21.6308 19.3355 21.4749C19.8121 21.1846 20.3595 21.031 20.9176 21.031H21.8859L22.5678 21.031C23.1259 21.031 23.6733 21.1846 24.15 21.4749C24.4059 21.6308 24.6374 21.8237 24.837 22.0473L28.9822 26.6916C29.5032 27.2754 29.8998 27.9592 30.1479 28.7013L30.2115 28.8918C30.4082 29.4805 30.5085 30.097 30.5085 30.7176V33.1104C30.5085 33.2694 30.3796 33.3984 30.2205 33.3984H21.8875C21.8347 33.3984 21.7853 33.3842 21.7427 33.3594C21.7002 33.3842 21.6507 33.3984 21.5979 33.3984H13.2649C13.1058 33.3984 12.9769 33.2694 12.9769 33.1104Z" fill="white"/>
<path fill-rule="evenodd" clip-rule="evenodd" d="M21.538 26.4092C20.4347 26.4092 19.5225 27.3036 19.5225 28.4069V28.4069C19.5225 28.4069 19.5225 28.4069 19.5225 28.4069H23.5535C23.5535 28.4069 23.5535 28.4069 23.5535 28.4069V28.4069C23.5535 27.3036 22.6413 26.4092 21.538 26.4092Z" fill="black"/>
<path fill-rule="evenodd" clip-rule="evenodd" d="M16.9143 17.5872C17.2324 17.5872 17.4903 17.845 17.4903 18.1632V19.1559C17.4903 19.474 17.2324 19.7319 16.9143 19.7319H14.3208C14.2548 19.7319 14.1999 19.6804 14.1999 19.6144V19.6144C14.1999 18.4948 15.1075 17.5872 16.2271 17.5872H16.9143Z" fill="black"/>
<path fill-rule="evenodd" clip-rule="evenodd" d="M21.7441 25.249C22.5144 25.2439 23.721 24.7643 24.2363 23.6852C24.8838 22.3291 24.5417 21.083 21.7318 21.083V21.0831C18.9332 21.0867 18.593 22.3312 19.2396 23.6853C19.7576 24.7702 20.9744 25.2491 21.7441 25.2491V25.249Z" fill="black"/>
<ellipse opacity="0.6" cx="21.7183" cy="21.7373" rx="1.31746" ry="0.458245" fill="white"/>
<path fill-rule="evenodd" clip-rule="evenodd" d="M26.1305 17.5872C25.8124 17.5872 25.5545 17.845 25.5545 18.1632V19.1559C25.5545 19.474 25.8124 19.7319 26.1305 19.7319H28.7242C28.7902 19.7319 28.8451 19.6804 28.8451 19.6144V19.6144C28.8451 18.4948 27.9375 17.5872 26.8179 17.5872H26.1305Z" fill="black"/>
<path d="M25.0291 25.3474C25.0114 25.1775 25.1447 25.0295 25.3155 25.0295H35.7084C35.8792 25.0295 36.0125 25.1775 35.9948 25.3474L34.7257 37.5207C34.7104 37.6674 34.5868 37.7788 34.4393 37.7788H26.5846C26.4371 37.7788 26.3135 37.6674 26.2982 37.5207L25.0291 25.3474Z" fill="#0090FF"/>
<g clip-path="url(#clip0_362_664)">
<path fill-rule="evenodd" clip-rule="evenodd" d="M30.5286 35.4751C28.5102 35.4751 26.8588 33.8237 26.8588 31.787C26.8772 29.7687 28.5102 28.1173 30.547 28.1356C32.5653 28.154 34.1984 29.787 34.1984 31.8421C34.1801 33.8421 32.547 35.4751 30.5286 35.4751Z" fill="#0090FF"/>
<path fill-rule="evenodd" clip-rule="evenodd" d="M30.925 31.3046L30.7998 31.9724L31.9894 32.1394L31.9059 32.4524L30.7372 32.2855C30.6537 32.5568 30.612 32.849 30.5076 33.0994C30.4033 33.3916 30.2989 33.6838 30.1737 33.9551C30.0067 34.3099 29.7146 34.5603 29.318 34.6229C29.0885 34.6647 28.838 34.6438 28.6502 34.4977C28.5876 34.456 28.525 34.3725 28.525 34.3099C28.525 34.2264 28.5667 34.1221 28.6293 34.0803C28.6711 34.0594 28.7754 34.0803 28.838 34.1012C28.9006 34.1638 28.9632 34.2473 29.005 34.3308C29.1302 34.4977 29.2972 34.5186 29.4641 34.3934C29.652 34.2264 29.7563 33.9968 29.8189 33.7673C29.9441 33.2664 30.0694 32.7864 30.1737 32.2855V32.202L29.0676 32.035L29.1093 31.722L30.2572 31.889L30.4033 31.242L29.2137 31.0541L29.2554 30.7202L30.4868 30.8872C30.5285 30.762 30.5494 30.6576 30.5911 30.5533C30.6955 30.1776 30.7998 29.8019 31.0503 29.468C31.3007 29.1341 31.5929 28.9254 32.0312 28.9463C32.219 28.9463 32.4068 29.0089 32.532 29.155C32.5529 29.1758 32.5946 29.2176 32.5946 29.2593C32.5946 29.3428 32.5946 29.4471 32.532 29.5098C32.4486 29.5724 32.3442 29.5515 32.2607 29.468C32.1981 29.4054 32.1564 29.3428 32.0938 29.2802C31.9685 29.1132 31.7807 29.0923 31.6346 29.2384C31.5303 29.3428 31.4259 29.4889 31.3633 29.635C31.2172 30.0732 31.1129 30.5324 30.9668 30.9915L32.1146 31.1585L32.0312 31.4715L30.925 31.3046Z" fill="white"/>
</g>
<path d="M31.8988 23.5067C32.2676 23.2897 32.6877 23.1753 33.1156 23.1753H35.3094C35.5745 23.1753 35.7894 23.3902 35.7894 23.6553V24.8672H29.5859L31.8988 23.5067Z" fill="#0090FF"/>
<path d="M24.6841 24.695C24.7146 24.5646 24.8308 24.4724 24.9646 24.4724H36.0686C36.2025 24.4724 36.3187 24.5646 36.3491 24.695L36.6095 25.8108C36.6516 25.9915 36.5145 26.1643 36.329 26.1643H24.7042C24.5187 26.1643 24.3816 25.9915 24.4238 25.8108L24.6841 24.695Z" fill="#77B6FF"/>
<rect x="33.6545" y="29.0314" width="4.33752" height="5.60099" rx="2.16876" fill="#FFAD06" stroke="#FF5C00" stroke-width="0.576"/>
<path d="M33.6474 31.0364H35.3788" stroke="#FF5C00" stroke-width="0.576"/>
<path d="M33.6474 32.5806H35.3788" stroke="#FF5C00" stroke-width="0.576"/>
<defs>
<clipPath id="clip0_362_664">
<rect width="8.34807" height="8.34807" fill="white" transform="translate(26.3545 27.6313)"/>
</clipPath>
</defs>
</svg>
