<svg width="62" height="58" viewBox="0 0 62 58" fill="none" xmlns="http://www.w3.org/2000/svg">
<path d="M51.7066 50.5381C51.9261 48.8773 51.2357 48.2637 50.5185 48.1068C50.0765 48.0101 49.6363 47.7012 49.6363 47.272C49.6363 46.9108 49.3308 46.616 48.949 46.6086L11.7322 45.8902C11.2487 45.8809 10.7738 46.0119 10.3715 46.2656L9.80647 46.6219C4.08833 51.1909 24.0032 55.9464 30.6087 56.1329C37.2141 56.3194 51.3123 53.522 51.7066 50.5381Z" fill="white"/>
<path fill-rule="evenodd" clip-rule="evenodd" d="M12.2801 44.914C11.6852 44.9015 11.1009 45.0772 10.6059 45.4176L10.0223 45.8189L9.99702 45.8409C9.21503 46.5223 8.77378 47.2955 8.78784 48.1483C8.80157 48.9813 9.24891 49.7246 9.8738 50.3623C11.1167 51.6307 13.3459 52.7706 15.8593 53.7309C20.915 55.6627 27.5037 57.0059 30.8302 57.1084C34.1513 57.2106 39.3019 56.4985 43.6653 55.3639C45.8484 54.7963 47.8654 54.1151 49.3733 53.361C50.1258 52.9846 50.7763 52.578 51.2602 52.1403C51.7353 51.7107 52.1169 51.19 52.1911 50.5776C52.3086 49.608 52.1946 48.8512 51.8773 48.2903C51.5521 47.7155 51.0569 47.4233 50.5751 47.3084C50.4411 47.2765 50.3183 47.2104 50.2395 47.1362C50.1644 47.0653 50.1579 47.018 50.1579 46.9975C50.1579 46.2829 49.6037 45.6996 48.911 45.685L12.2801 44.914ZM11.2518 46.4169C11.5488 46.2127 11.8994 46.1072 12.2563 46.1147L48.8873 46.8858C48.9462 46.887 48.9934 46.9367 48.9934 46.9975C48.9934 47.4376 49.2035 47.7864 49.4537 48.0225C49.7004 48.2551 50.0117 48.4067 50.3128 48.4785C50.5369 48.532 50.7345 48.6533 50.8715 48.8956C51.0165 49.1517 51.1342 49.6155 51.0357 50.4286C51.0129 50.6169 50.8759 50.8906 50.4925 51.2373C50.1179 51.5761 49.5698 51.9279 48.8652 52.2803C47.4589 52.9836 45.5278 53.6411 43.3806 54.1994C39.0835 55.3167 34.0453 56.0058 30.8649 55.9079C27.6899 55.8101 21.2271 54.5012 16.2638 52.6047C13.7676 51.651 11.7454 50.5828 10.6928 49.5086C10.1699 48.975 9.95847 48.5135 9.95211 48.1279C9.94616 47.7669 10.1188 47.315 10.7241 46.7798L11.2518 46.4169Z" fill="black"/>
<path d="M56.6298 21.4803C56.6298 22.8284 57.7227 23.9212 59.0708 23.9212C60.4189 23.9212 61.5117 22.8284 61.5117 21.4803C61.5117 20.1322 60.4189 19.0393 59.0708 19.0393C57.7227 19.0393 56.6298 20.1322 56.6298 21.4803Z" fill="white"/>
<path fill-rule="evenodd" clip-rule="evenodd" d="M59.0709 19.2672C60.2572 19.2672 61.2189 20.1488 61.2189 21.2362C61.2189 22.3237 60.2572 23.2052 59.0709 23.2052C57.8845 23.2052 56.9228 22.3237 56.9228 21.2362C56.9228 20.1488 57.8845 19.2672 59.0709 19.2672ZM62 21.2362C62 19.7533 60.6886 18.5512 59.0709 18.5512C57.4532 18.5512 56.1417 19.7533 56.1417 21.2362C56.1417 22.7191 57.4532 23.9213 59.0709 23.9213C60.6886 23.9213 62 22.7191 62 21.2362Z" fill="black"/>
<path d="M5.37017 21.4803C5.37017 22.8284 4.27732 23.9212 2.92923 23.9212C1.58113 23.9212 0.488281 22.8284 0.488281 21.4803C0.488281 20.1322 1.58113 19.0393 2.92923 19.0393C4.27732 19.0393 5.37017 20.1322 5.37017 21.4803Z" fill="white"/>
<path fill-rule="evenodd" clip-rule="evenodd" d="M2.92913 19.2672C1.74281 19.2672 0.781102 20.1488 0.781102 21.2362C0.781102 22.3237 1.74281 23.2052 2.92913 23.2052C4.11546 23.2052 5.07717 22.3237 5.07717 21.2362C5.07717 20.1488 4.11546 19.2672 2.92913 19.2672ZM0 21.2362C0 19.7533 1.31142 18.5512 2.92913 18.5512C4.54685 18.5512 5.85827 19.7533 5.85827 21.2362C5.85827 22.7191 4.54685 23.9213 2.92913 23.9213C1.31142 23.9213 0 22.7191 0 21.2362Z" fill="black"/>
<path d="M59.0491 24.1266L57.9732 18.9822C57.8613 18.447 57.3819 18.063 56.8258 18.063C56.0654 18.063 55.5065 18.7639 55.6886 19.4893L56.9683 24.5886C57.0858 25.0568 57.5133 25.3858 58.0041 25.3858C58.6796 25.3858 59.185 24.7768 59.0491 24.1266Z" fill="white"/>
<path fill-rule="evenodd" clip-rule="evenodd" d="M58.0506 19.2547C57.9114 18.5609 57.3151 18.063 56.6235 18.063C55.6775 18.063 54.9824 18.9717 55.2088 19.9122L56.3891 24.8142C56.539 25.4366 57.0842 25.874 57.7102 25.874C58.5717 25.874 59.2164 25.0644 59.043 24.2002L58.0506 19.2547ZM56.6235 18.8344C56.9575 18.8344 57.2455 19.0749 57.3127 19.41L58.305 24.3555C58.3824 24.7412 58.0947 25.1025 57.7102 25.1025C57.4308 25.1025 57.1875 24.9073 57.1206 24.6295L55.9403 19.7275C55.8309 19.2733 56.1666 18.8344 56.6235 18.8344Z" fill="black"/>
<path d="M2.95092 24.1266L4.02681 18.9822C4.13872 18.447 4.61812 18.063 5.17415 18.063C5.93462 18.063 6.49347 18.7639 6.31141 19.4893L5.0317 24.5886C4.9142 25.0568 4.48672 25.3858 3.99591 25.3858C3.3204 25.3858 2.81496 24.7768 2.95092 24.1266Z" fill="white"/>
<path fill-rule="evenodd" clip-rule="evenodd" d="M3.94935 19.2547C4.08856 18.5609 4.68489 18.063 5.37653 18.063C6.32247 18.063 7.01761 18.9717 6.79115 19.9122L5.61085 24.8142C5.46099 25.4366 4.91578 25.874 4.28981 25.874C3.42827 25.874 2.78364 25.0644 2.95704 24.2002L3.94935 19.2547ZM5.37653 18.8344C5.04249 18.8344 4.75449 19.0749 4.68726 19.41L3.69495 24.3555C3.61756 24.7412 3.90528 25.1025 4.28981 25.1025C4.5692 25.1025 4.81254 24.9073 4.87943 24.6295L6.05973 19.7275C6.1691 19.2733 5.83338 18.8344 5.37653 18.8344Z" fill="black"/>
<path d="M57.5629 27.5799C58.1904 36.5775 51.8765 44.9558 48.6411 48.0203C32.8563 56.8223 15.3068 49.5851 11.189 46.5532C7.07126 43.5214 4.22803 36.4797 5.01237 24.7436C5.79671 13.0075 13.6401 0 31.3857 0C49.1314 0 56.7786 16.3328 57.5629 27.5799Z" fill="white"/>
<path fill-rule="evenodd" clip-rule="evenodd" d="M50.7857 10.4778C54.9172 15.8417 56.9849 22.5965 57.3689 28.1033C57.6714 32.4403 56.301 36.6577 54.434 40.1892C52.5884 43.6802 50.2809 46.4563 48.7143 47.9532C41.0162 52.2228 32.8825 52.6076 26.1412 51.5407C19.3655 50.4684 14.0615 47.94 12.0997 46.4956C8.24091 43.6544 5.40586 36.9004 6.18272 25.2758C6.56631 19.536 8.676 13.5052 12.8335 8.91809C16.9787 4.34465 23.1917 1.16928 31.8735 1.16928C40.5059 1.16928 46.6678 5.13166 50.7857 10.4778ZM51.7151 9.76536C47.4083 4.17385 40.9208 0 31.8735 0C22.8754 0 16.3414 3.30438 11.9641 8.13389C7.59918 12.9498 5.41102 19.245 5.01318 25.198C4.22719 36.9591 7.05749 44.2364 11.4037 47.4364C13.5444 49.0126 19.0339 51.5998 25.9575 52.6956C32.8968 53.7938 41.3416 53.4042 49.3508 48.9379L49.415 48.9021L49.4684 48.8516C51.1246 47.2829 53.5425 44.3821 55.4708 40.7346C57.3986 37.0881 58.8609 32.6495 58.5382 28.0221C58.1408 22.3233 56.0083 15.3391 51.7151 9.76536Z" fill="black"/>
<path fill-rule="evenodd" clip-rule="evenodd" d="M31.2692 13.0431C40.5045 12.7236 47.298 14.6433 49.5057 15.6221L49.7959 14.8809C47.4759 13.8523 40.5731 11.9178 31.2447 12.2406L31.2692 13.0431Z" fill="black"/>
<path fill-rule="evenodd" clip-rule="evenodd" d="M23.4327 13.1811H28.8027V12.2047H23.4327V13.1811Z" fill="black"/>
<path fill-rule="evenodd" clip-rule="evenodd" d="M18.1659 14.1575L21.4805 13.6668L21.3777 12.6929L18.0631 13.1836L18.1659 14.1575Z" fill="black"/>
<path fill-rule="evenodd" clip-rule="evenodd" d="M13.8697 15.1338L16.5986 14.3881L16.3984 13.6693L13.6695 14.415L13.8697 15.1338Z" fill="black"/>
<path d="M10.7402 25.525C10.7402 29.7631 11.4891 35.8496 11.9809 39.1771C12.0793 39.8429 12.4658 40.4342 13.0596 40.7597C23.4509 46.4558 40.5714 43.2771 49.0645 40.6063C49.8069 40.3729 50.3663 39.7765 50.5357 39.0225C51.11 36.4665 51.86 31.834 51.734 27.0963C51.5473 20.0715 51.3605 14.6181 31.2838 15.1727C11.2071 15.7273 10.7402 19.6094 10.7402 25.525Z" fill="black"/>
<path fill-rule="evenodd" clip-rule="evenodd" d="M9.76389 25.7813C9.76389 30.0669 10.5186 36.1824 11.0098 39.5044C11.1406 40.3888 11.659 41.1981 12.4818 41.6489C17.8584 44.5944 24.8986 45.2144 31.578 44.7957C38.2772 44.3758 44.7282 42.9032 49.0131 41.5565C50.0147 41.2417 50.7774 40.433 51.0082 39.4065C51.5902 36.8178 52.3499 32.1331 52.2221 27.3273C52.2211 27.2895 52.2201 27.2517 52.2191 27.2138C52.1293 23.8249 52.038 20.3784 49.1866 17.9789C47.7613 16.7794 45.7115 15.8937 42.7979 15.3376C39.8834 14.7814 36.0539 14.5456 31.0179 14.6847C25.9909 14.8234 22.1611 15.1709 19.2441 15.7142C16.3339 16.2563 14.2783 17.0029 12.8415 17.9757C11.3762 18.9679 10.5869 20.1739 10.1814 21.5392C9.78847 22.8626 9.76389 24.3185 9.76389 25.7813ZM11.7844 39.3918C11.2939 36.0744 10.5468 30.0065 10.5468 25.7813C10.5468 19.8837 11.0125 16.0134 31.0397 15.4605C51.0669 14.9076 51.2532 20.3444 51.4395 27.3478C51.5651 32.071 50.8169 36.6894 50.2441 39.2376C50.0751 39.9894 49.5171 40.5839 48.7765 40.8167C40.3044 43.4794 23.2262 46.6483 12.8604 40.9696C12.2682 40.6451 11.8826 40.0555 11.7844 39.3918Z" fill="black"/>
<mask id="mask0_581_3686" style="mask-type:alpha" maskUnits="userSpaceOnUse" x="10" y="15" width="42" height="29">
<path d="M10.7402 25.525C10.7402 29.7631 11.4891 35.8496 11.9809 39.1771C12.0793 39.8429 12.4658 40.4342 13.0596 40.7597C23.4509 46.4558 40.5714 43.2771 49.0645 40.6063C49.8069 40.3729 50.3663 39.7765 50.5357 39.0225C51.11 36.4665 51.86 31.834 51.734 27.0963C51.5473 20.0715 51.3605 14.6181 31.2838 15.1727C11.2071 15.7273 10.7402 19.6094 10.7402 25.525Z" fill="black"/>
</mask>
<g mask="url(#mask0_581_3686)">
<path fill-rule="evenodd" clip-rule="evenodd" d="M52.7203 46.9223C51.5984 40.3036 49.4918 27.7706 49.4918 27.3404C49.4918 27.2665 49.5037 26.8791 49.5225 26.2607C49.6439 22.2818 50.0571 8.73752 49.4918 7.57289C48.8388 6.22726 46.8976 5.10905 45.2105 6.49259C44.2862 7.25055 42.6432 10.4033 41.23 13.1149C40.1824 15.1252 39.2611 16.8931 38.8526 17.2632C38.7837 17.3256 38.6924 17.3039 38.6091 17.262C37.9304 16.9209 35.6898 16.356 31.051 16.348C31.051 16.348 31.051 16.348 31.051 16.348C31.051 16.348 31.051 16.3479 31.0509 16.3479C31.0343 16.3479 31.0177 16.3479 31.0012 16.348C30.9846 16.3479 30.968 16.3479 30.9514 16.3479C30.9514 16.3479 30.9514 16.348 30.9514 16.348C30.9514 16.348 30.9514 16.348 30.9513 16.348C26.3125 16.356 24.0719 16.9209 23.3932 17.262C23.3099 17.3039 23.2187 17.3256 23.1498 17.2632C22.7413 16.8931 21.82 15.1252 20.7723 13.1149C19.3592 10.4033 17.7162 7.25055 16.7919 6.49259C15.1047 5.10905 13.1636 6.22726 12.5105 7.57289C11.9453 8.73752 12.3584 22.2818 12.4798 26.2607C12.4987 26.8791 12.5105 27.2665 12.5105 27.3404C12.5105 27.7706 10.404 40.3036 9.28205 46.9223C9.24337 47.1505 9.42219 47.3544 9.65649 47.3544H30.9514H31.051H52.3459C52.5802 47.3544 52.759 47.1505 52.7203 46.9223Z" fill="#FFAD06"/>
<path fill-rule="evenodd" clip-rule="evenodd" d="M44.4258 46.9799V43.0032C44.4258 42.1963 44.2937 41.3946 44.0346 40.6293L43.7722 39.8542C43.4456 38.8893 42.9232 38.0002 42.237 37.2412L35.5817 29.8796C35.2705 29.5353 34.9095 29.2384 34.5103 28.9984C33.767 28.5515 32.9134 28.315 32.0431 28.315H30.9798H30.5332H29.4699C28.5996 28.315 27.746 28.5515 27.0027 28.9984C26.6035 29.2384 26.2425 29.5353 25.9313 29.8796L19.276 37.2412C18.5898 38.0002 18.0674 38.8893 17.7407 39.8542L17.4784 40.6293C17.2193 41.3946 17.0872 42.1963 17.0872 43.0032V46.9799C17.0872 47.1867 17.257 47.3544 17.4665 47.3544H30.6005C30.6561 47.3544 30.7089 47.3426 30.7565 47.3214C30.8041 47.3426 30.8569 47.3544 30.9125 47.3544H44.0465C44.256 47.3544 44.4258 47.1867 44.4258 46.9799Z" fill="white"/>
<path fill-rule="evenodd" clip-rule="evenodd" d="M34.1748 40.0316H27.8283C27.8284 38.1442 29.2646 36.6142 31.0016 36.6142C32.7386 36.6142 34.1748 38.1442 34.1748 40.0316Z" fill="black"/>
<path fill-rule="evenodd" clip-rule="evenodd" d="M37.8975 22.9449C37.459 22.9449 37.1036 23.2424 37.1036 23.6094V25.2096C37.1036 25.5766 37.459 25.8741 37.8975 25.8741H42.2766C42.3841 25.8741 42.4736 25.8038 42.4736 25.7138C42.4736 24.1846 40.9924 22.9449 39.1651 22.9449H37.8975Z" fill="black"/>
<path fill-rule="evenodd" clip-rule="evenodd" d="M30.7663 35.1496C31.9849 35.1414 33.8939 34.3546 34.7091 32.5842C35.7319 30.3626 35.1938 28.3209 30.7663 28.315V28.315C30.7631 28.315 30.7599 28.315 30.7567 28.315C30.7535 28.315 30.7503 28.315 30.7471 28.315V28.315C26.3196 28.3209 25.7815 30.3626 26.8043 32.5842C27.6195 34.3546 29.5285 35.1414 30.7471 35.1496V35.1497C30.7503 35.1497 30.7535 35.1497 30.7567 35.1497C30.7599 35.1497 30.7631 35.1497 30.7663 35.1497V35.1496Z" fill="black"/>
<path opacity="0.6" d="M28.8045 29.5355C28.8045 29.9399 29.7881 30.2678 31.0014 30.2678C32.2147 30.2678 33.1982 29.9399 33.1982 29.5355C33.1982 29.131 32.2147 28.8032 31.0014 28.8032C29.7881 28.8032 28.8045 29.131 28.8045 29.5355Z" fill="white"/>
<path fill-rule="evenodd" clip-rule="evenodd" d="M24.1045 22.9449C24.543 22.9449 24.8984 23.2424 24.8984 23.6094V25.2097C24.8984 25.5766 24.543 25.8741 24.1045 25.8741H19.7256C19.6179 25.8741 19.5283 25.8037 19.5283 25.7137C19.5283 24.1845 21.0095 22.9449 22.8367 22.9449H24.1045Z" fill="black"/>
</g>
<path opacity="0.3" d="M11.2284 26.0132C11.2284 30.2514 11.9684 36.3378 12.4543 39.6653C12.5515 40.3311 12.9335 40.9225 13.5201 41.2479C23.7878 46.944 40.7045 43.7653 49.0964 41.0945C49.83 40.8611 50.3827 40.2647 50.5501 39.5107C51.1175 36.9547 51.8587 32.3222 51.7342 27.5845C51.5497 20.5598 51.3651 15.1063 31.5274 15.6609C11.6897 16.2155 11.2284 20.0976 11.2284 26.0132Z" fill="black"/>
<path opacity="0.3" fill-rule="evenodd" clip-rule="evenodd" d="M10.2523 25.7813C10.2523 30.067 11.0156 36.1825 11.5125 39.5045C11.6448 40.3889 12.1691 41.1982 13.0014 41.6489C18.4399 44.5945 25.5609 45.2145 32.3171 44.7958C39.0933 44.3758 45.6185 42.9032 49.9526 41.5566C50.9657 41.2418 51.7372 40.4331 51.9707 39.4065C52.5593 36.8179 53.3278 32.1331 53.1985 27.3274C53.1975 27.2896 53.1965 27.2517 53.1954 27.2139C53.1046 23.8249 53.0122 20.3785 50.1281 17.9789C48.6864 16.7795 46.6131 15.8938 43.666 15.3377C40.718 14.7815 36.8445 14.5457 31.7506 14.6847C26.6658 14.8235 22.7919 15.171 19.8415 15.7143C16.8978 16.2564 14.8186 17.0029 13.3652 17.9758C11.8831 18.9679 11.0847 20.174 10.6746 21.5392C10.2771 22.8626 10.2523 24.3186 10.2523 25.7813ZM12.296 39.3919C11.7998 36.0745 11.0442 30.0066 11.0442 25.7813C11.0442 19.8837 11.5153 16.0134 31.7726 15.4605C52.03 14.9076 52.2184 20.3445 52.4069 27.3479C52.534 32.0711 51.7772 36.6895 51.1977 39.2377C51.0268 39.9894 50.4624 40.584 49.7133 40.8167C41.1438 43.4794 23.8693 46.6484 13.3844 40.9697C12.7853 40.6452 12.3953 40.0556 12.296 39.3919Z" fill="black"/>
<path opacity="0.4" d="M48.8139 21.3773C48.6556 19.6615 47.0989 19.1675 46.3403 19.135C43.141 18.6476 36.3466 17.7702 34.7635 18.1601C32.7846 18.6476 33.5761 21.7673 36.7424 22.7422C39.9087 23.7171 40.8982 20.9874 43.2729 28.4942C45.6476 36.001 46.3403 34.6361 48.2203 34.4411C50.1002 34.2461 49.0118 23.5221 48.8139 21.3773Z" fill="white"/>
<path opacity="0.4" d="M17.1807 34.2033C16.065 34.2033 16.9252 31.8383 16.6228 31.062C15.4451 30.0149 13.1084 29.1772 13.1828 34.2033C13.2757 40.4858 15.3212 40.0239 21.3645 40.0239C27.4077 40.0239 25.0047 37.0029 24.4326 36.0511C23.6774 34.7948 18.5753 34.2033 17.1807 34.2033Z" fill="white"/>
</svg>
