<svg width="90" height="90" viewBox="0 0 90 90" fill="none" xmlns="http://www.w3.org/2000/svg">
<circle cx="45" cy="45" r="45" fill="#0090FF"/>
<path fill-rule="evenodd" clip-rule="evenodd" d="M49 40.367L47.8 46.6971L59.2 48.2797L58.4 51.247L47.2 49.6644C46.4 52.236 46 55.0055 45 57.3793C44 60.1488 43 62.9182 41.8 65.4898C40.2 68.8527 37.4 71.2265 33.6 71.82C31.4 72.2156 29 72.0178 27.2 70.6331C26.6 70.2375 26 69.4462 26 68.8527C26 68.0615 26.4 67.0724 27 66.6767C27.4 66.4789 28.4 66.6767 29 66.8746C29.6 67.468 30.2 68.2593 30.6 69.0505C31.8 70.6331 33.4 70.8309 35 69.644C36.8 68.0615 37.8 65.8855 38.4 63.7095C39.6 58.9618 40.8 54.412 41.8 49.6644V48.8731L31.2 47.2906L31.6 44.3233L42.6 45.9059L44 39.7735L32.6 37.9932L33 34.8281L44.8 36.4106C45.2 35.2237 45.4 34.2346 45.8 33.2455C46.8 29.6848 47.8 26.1241 50.2 22.959C52.6 19.7939 55.4 17.8158 59.6 18.0136C61.4 18.0136 63.2 18.607 64.4 19.9918C64.6 20.1896 65 20.5852 65 20.9808C65 21.7721 65 22.7612 64.4 23.3547C63.6 23.9481 62.6 23.7503 61.8 22.959C61.2 22.3656 60.8 21.7721 60.2 21.1787C59 19.5961 57.2 19.3983 55.8 20.783C54.8 21.7721 53.8 23.1568 53.2 24.5416C51.8 28.6957 50.8 33.0477 49.4 37.3997L60.4 38.9823L59.6 41.9495L49 40.367Z" fill="white"/>
</svg>
