<svg width="550" height="550" viewBox="0 0 550 550" fill="none" xmlns="http://www.w3.org/2000/svg">
<circle cx="275" cy="275" r="275" fill="#FFE896"/>
<path d="M420.56 421.286C422.131 409.353 417.189 404.945 412.057 403.818C408.893 403.123 405.742 400.903 405.742 397.82C405.742 395.225 403.556 393.106 400.823 393.053L134.456 387.892C130.996 387.825 127.597 388.766 124.717 390.589L120.673 393.149C79.7475 425.976 222.282 460.143 269.558 461.483C316.835 462.823 417.738 442.724 420.56 421.286Z" fill="white"/>
<path fill-rule="evenodd" clip-rule="evenodd" d="M138.371 381.041C134.115 380.952 129.934 382.21 126.391 384.647L122.215 387.519L122.034 387.676C116.439 392.554 113.281 398.088 113.382 404.193C113.48 410.155 116.681 415.476 121.153 420.041C130.046 429.12 145.998 437.279 163.982 444.153C200.159 457.98 247.305 467.595 271.108 468.328C294.873 469.06 331.728 463.963 362.951 455.842C378.573 451.779 393.006 446.903 403.796 441.505C409.18 438.811 413.835 435.9 417.298 432.768C420.697 429.692 423.428 425.965 423.959 421.581C424.8 414.641 423.984 409.224 421.713 405.209C419.386 401.094 415.843 399.003 412.396 398.181C411.437 397.952 410.558 397.479 409.994 396.948C409.457 396.441 409.41 396.102 409.41 395.955C409.41 390.84 405.444 386.665 400.488 386.561L138.371 381.041ZM131.013 391.799C133.139 390.338 135.647 389.583 138.201 389.636L400.318 395.155C400.74 395.164 401.077 395.52 401.077 395.955C401.077 399.105 402.58 401.602 404.371 403.292C406.136 404.957 408.364 406.043 410.519 406.557C412.122 406.939 413.536 407.808 414.517 409.542C415.554 411.375 416.396 414.695 415.691 420.515C415.528 421.863 414.548 423.822 411.804 426.304C409.124 428.729 405.202 431.247 400.16 433.769C390.097 438.804 376.279 443.51 360.915 447.506C330.166 455.504 294.114 460.436 271.357 459.736C248.638 459.036 202.393 449.666 166.877 436.092C149.015 429.265 134.545 421.619 127.013 413.93C123.272 410.11 121.759 406.807 121.713 404.046C121.67 401.462 122.906 398.228 127.237 394.397L131.013 391.799Z" fill="black"/>
<path d="M455.972 212.738C455.972 222.435 463.833 230.296 473.53 230.296C483.227 230.296 491.088 222.435 491.088 212.738C491.088 203.041 483.227 195.181 473.53 195.181C463.833 195.181 455.972 203.041 455.972 212.738Z" fill="white"/>
<path fill-rule="evenodd" clip-rule="evenodd" d="M473.53 196.894C482.029 196.894 488.918 203.221 488.918 211.025C488.918 218.83 482.029 225.157 473.53 225.157C465.031 225.157 458.142 218.83 458.142 211.025C458.142 203.221 465.031 196.894 473.53 196.894ZM494.514 211.025C494.514 200.382 485.119 191.755 473.53 191.755C461.941 191.755 452.546 200.382 452.546 211.025C452.546 221.668 461.941 230.296 473.53 230.296C485.119 230.296 494.514 221.668 494.514 211.025Z" fill="black"/>
<path d="M88.5416 212.738C88.5416 222.435 80.6807 230.296 70.9838 230.296C61.2868 230.296 53.4259 222.435 53.4259 212.738C53.4259 203.041 61.2868 195.181 70.9838 195.181C80.6807 195.181 88.5416 203.041 88.5416 212.738Z" fill="white"/>
<path fill-rule="evenodd" clip-rule="evenodd" d="M70.9838 196.894C62.4852 196.894 55.5957 203.221 55.5957 211.025C55.5957 218.83 62.4852 225.157 70.9838 225.157C79.4824 225.157 86.3719 218.83 86.3719 211.025C86.3719 203.221 79.4824 196.894 70.9838 196.894ZM50 211.025C50 200.382 59.3948 191.755 70.9838 191.755C82.5728 191.755 91.9676 200.382 91.9676 211.025C91.9676 221.668 82.5728 230.296 70.9838 230.296C59.3948 230.296 50 221.668 50 211.025Z" fill="black"/>
<path d="M472.946 231.591L465.396 194.887C464.611 191.069 461.246 188.329 457.344 188.329C452.008 188.329 448.086 193.329 449.363 198.505L458.344 234.886C459.169 238.227 462.168 240.574 465.613 240.574C470.353 240.574 473.9 236.229 472.946 231.591Z" fill="white"/>
<path fill-rule="evenodd" clip-rule="evenodd" d="M465.939 196.823C464.963 191.878 460.778 188.329 455.924 188.329C449.286 188.329 444.408 194.805 445.997 201.509L454.28 236.447C455.331 240.883 459.157 244 463.55 244C469.596 244 474.12 238.23 472.903 232.07L465.939 196.823ZM455.924 193.827C458.268 193.827 460.289 195.541 460.761 197.929L467.725 233.177C468.268 235.926 466.249 238.502 463.55 238.502C461.59 238.502 459.882 237.11 459.413 235.13L451.13 200.192C450.362 196.955 452.718 193.827 455.924 193.827Z" fill="black"/>
<path d="M71.568 231.591L79.1181 194.887C79.9035 191.069 83.2677 188.329 87.1697 188.329C92.5064 188.329 96.4282 193.329 95.1506 198.505L86.1701 234.886C85.3455 238.227 82.3456 240.574 78.9013 240.574C74.1608 240.574 70.6138 236.229 71.568 231.591Z" fill="white"/>
<path fill-rule="evenodd" clip-rule="evenodd" d="M78.5745 196.823C79.5515 191.878 83.7363 188.329 88.5899 188.329C95.2282 188.329 100.106 194.805 98.5172 201.509L90.2343 236.447C89.1827 240.883 85.3566 244 80.9637 244C74.9178 244 70.394 238.23 71.6109 232.07L78.5745 196.823ZM88.5899 193.827C86.2458 193.827 84.2247 195.541 83.7529 197.929L76.7893 233.177C76.2461 235.926 78.2653 238.502 80.9637 238.502C82.9244 238.502 84.6321 237.11 85.1015 235.13L93.3844 200.192C94.1519 196.955 91.7959 193.827 88.5899 193.827Z" fill="black"/>
<path d="M462.512 256.615C467.007 321.085 421.776 381.117 398.598 403.074C285.518 466.143 159.797 414.286 130.298 392.563C100.799 370.839 80.4305 320.384 86.0494 236.293C91.6682 152.201 147.857 59 274.983 59C402.11 59 456.894 176.027 462.512 256.615Z" fill="white"/>
<path fill-rule="evenodd" clip-rule="evenodd" d="M413.838 134.047C443.425 172.466 458.232 220.847 460.982 260.289C463.147 291.353 453.334 321.56 439.964 346.854C426.748 371.858 410.223 391.743 399.005 402.464C343.877 433.045 285.63 435.801 237.355 428.16C188.833 420.479 150.85 402.37 136.802 392.024C109.168 371.674 88.8656 323.298 94.4288 240.038C97.1758 198.926 112.284 155.731 142.056 122.876C171.741 90.1185 216.233 67.3749 278.404 67.3749C340.223 67.3749 384.349 95.7554 413.838 134.047ZM420.494 128.944C389.652 88.8951 343.194 59 278.404 59C213.968 59 167.177 82.6676 135.83 117.259C104.572 151.752 88.9025 196.842 86.0536 239.481C80.425 323.719 100.693 375.842 131.817 398.762C147.147 410.052 186.458 428.583 236.039 436.431C285.732 444.297 346.208 441.506 403.563 409.517L404.022 409.261L404.405 408.899C416.265 397.663 433.58 376.886 447.389 350.761C461.194 324.643 471.666 292.852 469.355 259.708C466.509 218.89 451.238 168.866 420.494 128.944Z" fill="black"/>
<path fill-rule="evenodd" clip-rule="evenodd" d="M274.574 152.245C340.662 150.002 389.277 163.474 405.076 170.343L407.153 165.141C390.551 157.923 341.153 144.348 274.398 146.613L274.574 152.245Z" fill="black"/>
<path fill-rule="evenodd" clip-rule="evenodd" d="M217.87 153.213H256.412V146.361H217.87V153.213Z" fill="black"/>
<path fill-rule="evenodd" clip-rule="evenodd" d="M180.076 160.065L204.167 156.621L203.42 149.787L179.329 153.231L180.076 160.065Z" fill="black"/>
<path fill-rule="evenodd" clip-rule="evenodd" d="M149.102 166.917L169.051 161.683L167.588 156.639L147.639 161.872L149.102 166.917Z" fill="black"/>
<path d="M127.083 241.383C127.083 271.755 132.448 315.372 135.972 339.218C136.676 343.989 139.446 348.227 143.699 350.559C218.141 391.379 340.789 368.6 401.632 349.46C406.951 347.787 410.958 343.513 412.171 338.11C416.285 319.793 421.659 286.595 420.756 252.643C419.418 202.302 418.08 163.221 274.254 167.195C130.428 171.169 127.083 198.99 127.083 241.383Z" fill="black"/>
<path fill-rule="evenodd" clip-rule="evenodd" d="M120.232 243.527C120.232 274.33 125.634 318.284 129.151 342.161C130.087 348.517 133.798 354.334 139.688 357.574C178.179 378.745 228.577 383.201 276.394 380.192C324.352 377.173 370.534 366.589 401.208 356.91C408.378 354.648 413.839 348.835 415.491 341.457C419.657 322.851 425.096 289.18 424.181 254.639C424.173 254.367 424.166 254.095 424.159 253.823C423.516 229.466 422.862 204.695 402.45 187.448C392.247 178.827 377.573 172.461 356.715 168.465C335.851 164.467 308.436 162.772 272.384 163.771C236.397 164.769 208.98 167.266 188.099 171.171C167.265 175.068 152.549 180.433 142.263 187.425C131.774 194.556 126.123 203.225 123.221 213.037C120.407 222.549 120.232 233.014 120.232 243.527ZM134.696 341.352C131.184 317.508 125.836 273.896 125.836 243.527C125.836 201.139 129.17 173.321 272.54 169.347C415.911 165.373 417.244 204.45 418.578 254.786C419.477 288.734 414.121 321.929 410.02 340.243C408.811 345.646 404.816 349.92 399.514 351.593C338.865 370.73 216.605 393.507 142.399 352.692C138.159 350.36 135.399 346.122 134.696 341.352Z" fill="black"/>
<mask id="mask0_433_470" style="mask-type:alpha" maskUnits="userSpaceOnUse" x="127" y="166" width="294" height="208">
<path d="M127.083 241.383C127.083 271.755 132.448 315.372 135.972 339.218C136.676 343.989 139.446 348.227 143.699 350.559C218.141 391.379 340.789 368.6 401.632 349.46C406.951 347.787 410.958 343.513 412.171 338.11C416.285 319.793 421.659 286.595 420.756 252.643C419.418 202.302 418.08 163.221 274.254 167.195C130.428 171.169 127.083 198.99 127.083 241.383Z" fill="black"/>
</mask>
<g mask="url(#mask0_433_470)">
<path fill-rule="evenodd" clip-rule="evenodd" d="M427.671 395.072C419.643 347.668 404.569 257.906 404.569 254.825C404.569 254.295 404.653 251.521 404.788 247.092C405.657 218.594 408.614 121.589 404.569 113.248C399.896 103.61 386.006 95.6013 373.933 105.51C367.319 110.939 355.563 133.519 345.451 152.94C337.954 167.338 331.362 180 328.438 182.651C327.946 183.097 327.292 182.942 326.697 182.642C321.84 180.199 305.807 176.153 272.614 176.096C272.613 176.096 272.613 176.096 272.613 176.096V176.096C272.613 176.095 272.613 176.095 272.613 176.095C272.494 176.095 272.375 176.095 272.257 176.096C272.138 176.095 272.02 176.095 271.901 176.095C271.901 176.095 271.901 176.095 271.901 176.096V176.096C271.901 176.096 271.9 176.096 271.9 176.096C238.707 176.153 222.674 180.199 217.817 182.642C217.221 182.942 216.568 183.097 216.075 182.651C213.152 180 206.56 167.338 199.063 152.94C188.951 133.519 177.195 110.939 170.581 105.51C158.508 95.6013 144.618 103.61 139.945 113.248C135.9 121.589 138.857 218.594 139.725 247.092C139.86 251.521 139.945 254.295 139.945 254.825C139.945 257.906 124.871 347.668 116.843 395.072C116.567 396.706 117.846 398.167 119.523 398.167H271.901H272.613H424.991C426.668 398.167 427.947 396.706 427.671 395.072Z" fill="#FFAD06"/>
<path fill-rule="evenodd" clip-rule="evenodd" d="M368.611 395.488V367.044C368.611 361.273 367.663 355.539 365.805 350.065L363.922 344.521C361.579 337.619 357.831 331.26 352.908 325.831L305.161 273.177C302.929 270.714 300.338 268.591 297.475 266.874C292.142 263.677 286.018 261.986 279.774 261.986H272.146H268.942H261.314C255.07 261.986 248.946 263.677 243.613 266.874C240.75 268.591 238.159 270.714 235.927 273.177L188.18 325.831C183.257 331.26 179.509 337.619 177.166 344.521L175.283 350.065C173.425 355.539 172.477 361.273 172.477 367.044V395.488C172.477 396.967 173.695 398.167 175.198 398.167H269.425C269.824 398.167 270.203 398.082 270.544 397.93C270.885 398.082 271.264 398.167 271.663 398.167H365.89C367.393 398.167 368.611 396.967 368.611 395.488Z" fill="white"/>
<path fill-rule="evenodd" clip-rule="evenodd" d="M294.954 345.921H249.56C249.56 332.204 259.833 321.083 272.257 321.083C284.681 321.083 294.953 332.204 294.954 345.921Z" fill="black"/>
<path fill-rule="evenodd" clip-rule="evenodd" d="M322.064 223.444C318.917 223.444 316.366 225.532 316.366 228.107V239.337C316.366 241.912 318.917 244 322.064 244H353.493C354.265 244 354.907 243.507 354.907 242.875V242.875C354.907 232.144 344.276 223.444 331.162 223.444H322.064Z" fill="black"/>
<path fill-rule="evenodd" clip-rule="evenodd" d="M270.613 310.805C279.283 310.746 292.866 305.127 298.665 292.48C305.943 276.612 302.114 262.028 270.613 261.986V261.986C270.59 261.986 270.567 261.986 270.544 261.986C270.521 261.986 270.498 261.986 270.475 261.986V261.986C238.974 262.028 235.145 276.612 242.423 292.48C248.222 305.127 261.805 310.746 270.475 310.805V310.806C270.498 310.806 270.521 310.805 270.544 310.805C270.567 310.805 270.59 310.806 270.613 310.806V310.805Z" fill="black"/>
<path opacity="0.6" d="M256.412 270.551C256.412 273.389 263.506 275.69 272.257 275.69C281.008 275.69 288.102 273.389 288.102 270.551C288.102 267.713 281.008 265.412 272.257 265.412C263.506 265.412 256.412 267.713 256.412 270.551Z" fill="white"/>
<path fill-rule="evenodd" clip-rule="evenodd" d="M222.45 223.444C225.597 223.444 228.148 225.532 228.148 228.107V239.337C228.148 241.913 225.597 244 222.45 244H191.022C190.25 244 189.606 243.506 189.606 242.874V242.874C189.606 232.143 200.237 223.444 213.351 223.444H222.45Z" fill="black"/>
<path opacity="0.3" d="M125 240.76C125 271.66 130.387 316.036 133.925 340.296C134.633 345.15 137.414 349.462 141.685 351.835C216.438 393.364 339.598 370.189 400.695 350.716C406.036 349.014 410.06 344.666 411.279 339.169C415.41 320.533 420.805 286.758 419.899 252.217C418.556 201 417.212 161.24 272.786 165.283C128.359 169.327 125 197.631 125 240.76Z" fill="black"/>
</g>
<path opacity="0.4" d="M405.66 207.772C404.523 195.465 393.343 191.923 387.894 191.689C364.917 188.193 316.119 181.9 304.749 184.697C290.536 188.193 296.221 210.569 318.962 217.562C341.702 224.554 348.808 204.975 365.864 258.817C382.919 312.659 387.894 302.87 401.397 301.471C414.899 300.073 407.082 223.156 405.66 207.772Z" fill="white"/>
<path opacity="0.4" d="M173.123 304.999C165.059 304.999 171.276 287.988 169.091 282.403C160.578 274.872 143.688 268.846 144.226 304.999C144.898 350.19 159.682 346.867 203.364 346.867C247.046 346.867 229.677 325.136 225.541 318.29C220.082 309.254 183.203 304.999 173.123 304.999Z" fill="white"/>
<path d="M302.481 320.611C301.854 314.857 306.361 309.833 312.148 309.833H439.629C445.396 309.833 449.896 314.823 449.301 320.559L433.938 468.831C433.425 473.787 429.248 477.553 424.266 477.553H328.306C323.343 477.553 319.177 473.816 318.639 468.882L302.481 320.611Z" fill="#0090FF"/>
<path fill-rule="evenodd" clip-rule="evenodd" d="M439.629 316.316H312.148C310.219 316.316 308.717 317.99 308.926 319.908L325.084 468.18C325.263 469.825 326.652 471.07 328.306 471.07H424.266C425.926 471.07 427.319 469.815 427.49 468.163L442.853 319.891C443.051 317.979 441.551 316.316 439.629 316.316ZM312.148 309.833C306.361 309.833 301.854 314.857 302.481 320.611L318.639 468.882C319.177 473.816 323.343 477.553 328.306 477.553H424.266C429.248 477.553 433.425 473.787 433.938 468.831L449.301 320.559C449.896 314.823 445.396 309.833 439.629 309.833H312.148Z" fill="black"/>
<path fill-rule="evenodd" clip-rule="evenodd" d="M379.802 392.739L378.605 399.009L389.975 400.576L389.177 403.515L378.006 401.948C377.208 404.495 376.81 407.238 375.812 409.589C374.815 412.332 373.817 415.075 372.621 417.622C371.025 420.952 368.232 423.304 364.442 423.891C362.248 424.283 359.854 424.087 358.059 422.716C357.461 422.324 356.862 421.54 356.862 420.952C356.862 420.169 357.261 419.189 357.86 418.797C358.259 418.601 359.256 418.797 359.854 418.993C360.453 419.581 361.051 420.365 361.45 421.148C362.647 422.716 364.243 422.912 365.838 421.736C367.634 420.169 368.631 418.014 369.23 415.858C370.426 411.156 371.623 406.65 372.621 401.948V401.164L362.049 399.596L362.447 396.658L373.418 398.225L374.815 392.151L363.445 390.388L363.844 387.253L375.613 388.821C376.012 387.645 376.211 386.665 376.61 385.686C377.607 382.159 378.605 378.632 380.998 375.498C383.392 372.363 386.185 370.403 390.374 370.599C392.169 370.599 393.964 371.187 395.161 372.559C395.361 372.755 395.759 373.146 395.759 373.538C395.759 374.322 395.759 375.302 395.161 375.889C394.363 376.477 393.366 376.281 392.568 375.498C391.969 374.91 391.571 374.322 390.972 373.734C389.775 372.167 387.98 371.971 386.584 373.342C385.586 374.322 384.589 375.693 383.991 377.065C382.594 381.179 381.597 385.49 380.201 389.8L391.172 391.368L390.374 394.306L379.802 392.739Z" fill="white"/>
<path d="M382.856 296.522C392.42 290.896 403.315 287.929 414.411 287.929H433.318C438.473 287.929 442.653 292.109 442.653 297.265V310.907H358.401L382.856 296.522Z" fill="#0090FF"/>
<path fill-rule="evenodd" clip-rule="evenodd" d="M449.136 317.39H334.594L379.569 290.934C390.13 284.722 402.159 281.447 414.411 281.447H433.318C442.054 281.447 449.136 288.529 449.136 297.265V317.39ZM382.856 296.522C392.42 290.896 403.315 287.93 414.411 287.93H433.318C438.473 287.93 442.653 292.109 442.653 297.265V310.907H358.401L382.856 296.522Z" fill="black"/>
<path d="M304.039 312.692C304.577 310.522 306.524 308.999 308.759 308.999H442.241C444.476 308.999 446.423 310.522 446.96 312.692L449.369 322.416C450.129 325.482 447.808 328.447 444.649 328.447H306.35C303.191 328.447 300.871 325.482 301.63 322.416L304.039 312.692Z" fill="#77B6FF"/>
<path fill-rule="evenodd" clip-rule="evenodd" d="M308.759 302.516H442.241C447.456 302.516 451.999 306.071 453.253 311.133L455.662 320.857C457.434 328.012 452.02 334.93 444.649 334.93H306.35C298.979 334.93 293.565 328.012 295.338 320.857L297.747 311.133C299 306.071 303.544 302.516 308.759 302.516ZM308.759 308.999C306.524 308.999 304.577 310.523 304.039 312.692L301.63 322.416C300.871 325.482 303.191 328.447 306.35 328.447H444.649C447.808 328.447 450.129 325.482 449.369 322.416L446.96 312.692C446.423 310.523 444.476 308.999 442.241 308.999H308.759Z" fill="black"/>
<path d="M411.435 390.283C411.435 373.351 425.24 359.625 442.269 359.625V359.625C459.297 359.625 473.102 373.351 473.102 390.283V406.05C473.102 422.982 459.297 436.708 442.269 436.708V436.708C425.24 436.708 411.435 422.982 411.435 406.05V390.283Z" fill="#FFAD06"/>
<path fill-rule="evenodd" clip-rule="evenodd" d="M472.199 406.591V389.409C472.199 373.051 458.902 359.791 442.5 359.791C426.098 359.791 412.801 373.051 412.801 389.409V406.591C412.801 422.949 426.098 436.209 442.5 436.209C458.902 436.209 472.199 422.949 472.199 406.591ZM442.5 356C423.998 356 409 370.958 409 389.409V406.591C409 425.042 423.998 440 442.5 440C461.002 440 476 425.042 476 406.591V389.409C476 370.958 461.002 356 442.5 356Z" fill="black"/>
<path fill-rule="evenodd" clip-rule="evenodd" d="M433.13 392.032H411.718V386.032H433.13V392.032Z" fill="black"/>
<path fill-rule="evenodd" clip-rule="evenodd" d="M433.13 410.875H411.718V404.875H433.13V410.875Z" fill="black"/>
</svg>
